{"glyphs":{"0":{"ha":500,"x_min":0,"x_max":0,"o":"m 285 -7 b 444 153 382 -7 444 56 l 444 819 b 285 979 444 910 375 979 l 215 979 b 56 819 125 979 56 910 l 56 153 b 215 -7 56 56 118 -7 z m 285 833 b 299 819 293 833 299 829 l 299 153 b 285 139 299 143 294 139 l 215 139 b 201 153 206 139 201 143 l 201 819 b 215 833 201 829 207 833 z "},"1":{"ha":326,"x_min":0,"x_max":0,"o":"m 21 750 l 125 750 l 125 0 l 271 0 l 271 972 l 167 972 b 21 861 167 972 128 874 z "},"2":{"ha":500,"x_min":0,"x_max":0,"o":"m 56 0 l 444 0 l 444 146 l 201 146 l 201 197 b 239 297 201 236 207 256 l 371 471 b 444 667 419 535 444 571 l 444 819 b 285 979 444 910 375 979 l 215 979 b 56 819 125 979 56 910 l 56 639 l 201 639 l 201 819 b 215 833 201 829 207 833 l 285 833 b 299 819 293 833 299 829 l 299 667 b 261 567 299 628 293 608 l 129 393 b 56 197 81 329 56 293 z "},"3":{"ha":500,"x_min":0,"x_max":0,"o":"m 444 371 b 361 493 444 454 394 486 b 444 615 394 500 444 532 l 444 819 b 285 979 444 910 375 979 l 215 979 b 56 819 125 979 56 910 l 56 639 l 201 639 l 201 819 b 215 833 201 829 207 833 l 285 833 b 299 819 293 833 299 829 l 299 581 b 285 567 299 571 293 567 l 201 567 l 201 421 l 285 421 b 299 407 293 421 299 417 l 299 153 b 285 139 299 143 293 139 l 215 139 b 201 153 207 139 201 143 l 201 333 l 56 333 l 56 153 b 215 -7 56 63 125 -7 l 285 -7 b 444 153 375 -7 444 63 z "},"4":{"ha":486,"x_min":0,"x_max":0,"o":"m 243 0 l 389 0 l 389 208 l 458 208 l 458 354 l 389 354 l 389 972 l 181 972 l 21 354 l 21 208 l 243 208 z m 146 354 l 243 747 l 243 354 z "},"5":{"ha":500,"x_min":0,"x_max":0,"o":"m 201 826 l 424 826 l 424 972 l 56 972 l 56 467 l 201 467 l 201 504 b 215 518 201 514 207 518 l 285 518 b 299 504 293 518 299 514 l 299 153 b 285 139 299 143 293 139 l 215 139 b 201 153 207 139 201 143 l 201 333 l 56 333 l 56 153 b 215 -7 56 63 125 -7 l 285 -7 b 444 153 375 -7 444 63 l 444 504 b 285 664 444 594 375 664 l 279 664 b 201 644 251 664 224 657 z "},"6":{"ha":500,"x_min":0,"x_max":0,"o":"m 56 153 b 215 -7 56 63 125 -7 l 285 -7 b 444 153 375 -7 444 63 l 444 431 b 285 590 444 521 375 590 l 279 590 b 201 571 251 590 224 583 l 201 819 b 215 833 201 829 207 833 l 285 833 b 299 819 293 833 299 829 l 299 694 l 444 694 l 444 819 b 285 979 444 910 375 979 l 215 979 b 56 819 125 979 56 910 z m 201 431 b 215 444 201 440 207 444 l 285 444 b 299 431 293 444 299 440 l 299 153 b 285 139 299 143 293 139 l 215 139 b 201 153 207 139 201 143 z "},"7":{"ha":431,"x_min":0,"x_max":0,"o":"m 28 826 l 264 826 l 56 0 l 208 0 l 410 826 l 410 972 l 28 972 z "},"8":{"ha":500,"x_min":0,"x_max":0,"o":"m 215 979 b 56 819 125 979 56 910 l 56 615 b 139 493 56 532 106 500 b 56 371 106 486 56 454 l 56 153 b 215 -7 56 63 125 -7 l 285 -7 b 444 153 375 -7 444 63 l 444 371 b 361 493 444 454 394 486 b 444 615 394 500 444 532 l 444 819 b 285 979 444 910 375 979 z m 215 567 b 201 581 207 567 201 571 l 201 819 b 215 833 201 829 207 833 l 285 833 b 299 819 293 833 299 829 l 299 581 b 285 567 299 571 293 567 z m 215 139 b 201 153 207 139 201 143 l 201 407 b 215 421 201 417 207 421 l 285 421 b 299 407 293 421 299 417 l 299 153 b 285 139 299 143 293 139 z "},"9":{"ha":500,"x_min":0,"x_max":0,"o":"m 444 819 b 285 979 444 910 375 979 l 215 979 b 56 819 125 979 56 910 l 56 542 b 215 382 56 451 125 382 l 221 382 b 299 401 249 382 276 389 l 299 153 b 285 139 299 143 293 139 l 215 139 b 201 153 207 139 201 143 l 201 278 l 56 278 l 56 153 b 215 -7 56 63 125 -7 l 285 -7 b 444 153 375 -7 444 63 z m 299 542 b 285 528 299 532 293 528 l 215 528 b 201 542 207 528 201 532 l 201 819 b 215 833 201 829 207 833 l 285 833 b 299 819 293 833 299 829 z "}," ":{"ha":264,"x_min":0,"x_max":0,"o":""}," ":{"ha":264,"x_min":0,"x_max":0,"o":""}," ":{"ha":92,"x_min":0,"x_max":0,"o":""},"A":{"ha":528,"x_min":0,"x_max":0,"o":"m 21 0 l 174 0 l 193 167 l 333 167 l 354 0 l 507 0 l 375 972 l 153 972 z m 264 743 l 315 319 l 213 319 z "},"B":{"ha":556,"x_min":0,"x_max":0,"o":"m 299 0 b 500 201 417 0 500 83 l 500 340 b 417 493 500 424 471 479 b 500 646 471 507 500 563 l 500 771 b 299 972 500 896 417 972 l 56 972 l 56 0 z m 208 569 l 208 819 l 299 819 b 347 771 328 819 347 801 l 347 618 b 299 569 347 588 328 569 z m 208 153 l 208 417 l 299 417 b 347 368 328 417 347 399 l 347 201 b 299 153 347 171 328 153 z "},"C":{"ha":556,"x_min":0,"x_max":0,"o":"m 347 389 l 347 188 b 299 139 347 157 328 139 l 257 139 b 208 188 228 139 208 157 l 208 785 b 257 833 208 815 228 833 l 299 833 b 347 785 328 833 347 815 l 347 597 l 500 597 l 500 785 b 299 986 500 903 417 986 l 257 986 b 56 785 139 986 56 903 l 56 188 b 257 -14 56 69 139 -14 l 299 -14 b 500 188 417 -14 500 69 l 500 389 z "},"D":{"ha":556,"x_min":0,"x_max":0,"o":"m 500 771 b 299 972 500 896 417 972 l 56 972 l 56 0 l 299 0 b 500 201 417 0 500 83 z m 347 201 b 299 153 347 171 328 153 l 208 153 l 208 819 l 299 819 b 347 771 328 819 347 801 z "},"E":{"ha":472,"x_min":0,"x_max":0,"o":"m 56 972 l 56 0 l 438 0 l 438 153 l 208 153 l 208 417 l 410 417 l 410 569 l 208 569 l 208 819 l 438 819 l 438 972 z "},"F":{"ha":458,"x_min":0,"x_max":0,"o":"m 56 972 l 56 0 l 208 0 l 208 417 l 410 417 l 410 569 l 208 569 l 208 819 l 438 819 l 438 972 z "},"G":{"ha":556,"x_min":0,"x_max":0,"o":"m 278 500 l 278 347 l 347 347 l 347 188 b 299 139 347 157 328 139 l 257 139 b 208 188 228 139 208 157 l 208 785 b 257 833 208 815 228 833 l 299 833 b 347 785 328 833 347 815 l 347 653 l 500 653 l 500 785 b 299 986 500 903 417 986 l 257 986 b 56 785 139 986 56 903 l 56 188 b 257 -14 56 69 139 -14 l 299 -14 b 500 188 417 -14 500 69 l 500 500 z "},"H":{"ha":556,"x_min":0,"x_max":0,"o":"m 500 972 l 347 972 l 347 569 l 208 569 l 208 972 l 56 972 l 56 0 l 208 0 l 208 417 l 347 417 l 347 0 l 500 0 z "},"I":{"ha":264,"x_min":0,"x_max":0,"o":"m 208 972 l 56 972 l 56 0 l 208 0 z "},"J":{"ha":556,"x_min":0,"x_max":0,"o":"m 347 972 l 347 188 b 299 139 347 157 328 139 l 257 139 b 208 188 228 139 208 157 l 208 389 l 56 389 l 56 188 b 257 -14 56 69 139 -14 l 299 -14 b 500 188 417 -14 500 69 l 500 972 z "},"K":{"ha":560,"x_min":0,"x_max":0,"o":"m 372 0 l 539 0 l 338 569 l 517 972 l 350 972 l 208 610 l 208 972 l 56 972 l 56 0 l 208 0 l 208 278 l 250 386 z "},"L":{"ha":424,"x_min":0,"x_max":0,"o":"m 208 153 l 208 972 l 56 972 l 56 0 l 403 0 l 403 153 z "},"M":{"ha":736,"x_min":0,"x_max":0,"o":"m 681 972 l 493 972 l 368 469 l 243 972 l 56 972 l 56 0 l 208 0 l 208 535 l 347 28 l 389 28 l 528 535 l 528 0 l 681 0 z "},"N":{"ha":542,"x_min":0,"x_max":0,"o":"m 486 0 l 486 972 l 333 972 l 333 518 l 146 972 l 56 972 l 56 0 l 208 0 l 208 461 l 396 0 z "},"O":{"ha":556,"x_min":0,"x_max":0,"o":"m 299 -14 b 500 188 417 -14 500 69 l 500 785 b 299 986 500 903 417 986 l 257 986 b 56 785 139 986 56 903 l 56 188 b 257 -14 56 69 139 -14 z m 257 139 b 208 188 228 139 208 157 l 208 785 b 257 833 208 815 228 833 l 299 833 b 347 785 328 833 347 815 l 347 188 b 299 139 347 157 328 139 z "},"P":{"ha":556,"x_min":0,"x_max":0,"o":"m 208 347 l 299 347 b 500 549 417 347 500 431 l 500 771 b 299 972 500 896 417 972 l 56 972 l 56 0 l 208 0 z m 208 819 l 299 819 b 347 771 328 819 347 801 l 347 549 b 299 500 347 518 328 500 l 208 500 z "},"Q":{"ha":556,"x_min":0,"x_max":0,"o":"m 329 -11 b 500 188 429 1 500 79 l 500 785 b 299 986 500 903 417 986 l 257 986 b 56 785 139 986 56 903 l 56 188 b 226 -11 56 79 125 1 l 199 -125 l 357 -125 z m 257 139 b 208 188 228 139 208 157 l 208 785 b 257 833 208 815 228 833 l 299 833 b 347 785 328 833 347 815 l 347 188 b 299 139 347 157 328 139 z "},"R":{"ha":535,"x_min":0,"x_max":0,"o":"m 406 403 b 500 576 464 436 500 499 l 500 771 b 299 972 500 896 417 972 l 56 972 l 56 0 l 208 0 l 208 375 l 272 375 l 333 0 l 514 0 z m 208 819 l 299 819 b 347 771 328 819 347 801 l 347 576 b 299 528 347 546 328 528 l 208 528 z "},"S":{"ha":556,"x_min":0,"x_max":0,"o":"m 347 188 b 299 139 347 157 328 139 l 257 139 b 208 188 228 139 208 157 l 208 333 l 56 333 l 56 188 b 257 -14 56 69 139 -14 l 299 -14 b 500 188 417 -14 500 69 l 500 264 b 388 486 500 360 460 408 l 261 624 b 208 722 225 664 208 683 l 208 785 b 257 833 208 815 228 833 l 292 833 b 340 785 321 833 340 815 l 340 653 l 493 653 l 493 785 b 292 986 493 903 410 986 l 257 986 b 56 785 139 986 56 903 l 56 722 b 168 500 56 626 96 578 l 296 361 b 347 264 332 321 347 303 z "},"T":{"ha":514,"x_min":0,"x_max":0,"o":"m 21 972 l 21 819 l 181 819 l 181 0 l 333 0 l 333 819 l 493 819 l 493 972 z "},"U":{"ha":556,"x_min":0,"x_max":0,"o":"m 500 972 l 347 972 l 347 188 b 299 139 347 157 328 139 l 257 139 b 208 188 228 139 208 157 l 208 972 l 56 972 l 56 188 b 257 -14 56 69 139 -14 l 299 -14 b 500 188 417 -14 500 69 z "},"V":{"ha":514,"x_min":0,"x_max":0,"o":"m 146 0 l 368 0 l 493 972 l 340 972 l 257 243 l 174 972 l 21 972 z "},"W":{"ha":757,"x_min":0,"x_max":0,"o":"m 518 361 l 424 972 l 333 972 l 239 361 l 174 972 l 21 972 l 139 0 l 319 0 l 378 424 l 438 0 l 618 0 l 736 972 l 583 972 z "},"X":{"ha":542,"x_min":0,"x_max":0,"o":"m 174 493 l 28 0 l 188 0 l 271 315 l 354 0 l 514 0 l 375 493 l 507 972 l 347 972 l 271 669 l 194 972 l 35 972 z "},"Y":{"ha":500,"x_min":0,"x_max":0,"o":"m 326 333 l 479 972 l 326 972 l 250 551 l 174 972 l 21 972 l 174 333 l 174 0 l 326 0 z "},"Z":{"ha":418,"x_min":0,"x_max":0,"o":"m 200 153 l 397 917 l 397 972 l 28 972 l 28 819 l 218 819 l 21 56 l 21 0 l 397 0 l 397 153 z "},"À":{"ha":528,"x_min":0,"x_max":0,"o":"m 325 1014 l 267 1140 l 103 1140 l 217 1014 z m 21 0 l 174 0 l 193 167 l 333 167 l 354 0 l 507 0 l 375 972 l 153 972 z m 264 743 l 315 319 l 213 319 z "},"Á":{"ha":528,"x_min":0,"x_max":0,"o":"m 313 1014 l 426 1140 l 263 1140 l 204 1014 z m 21 0 l 174 0 l 193 167 l 333 167 l 354 0 l 507 0 l 375 972 l 153 972 z m 264 743 l 315 319 l 213 319 z "},"Â":{"ha":528,"x_min":0,"x_max":0,"o":"m 210 1014 l 264 1065 l 319 1014 l 428 1014 l 336 1140 l 193 1140 l 101 1014 z m 21 0 l 174 0 l 193 167 l 333 167 l 354 0 l 507 0 l 375 972 l 153 972 z m 264 743 l 315 319 l 213 319 z "},"Ã":{"ha":528,"x_min":0,"x_max":0,"o":"m 118 1021 b 211 1038 118 1021 167 1044 l 318 1021 b 411 1035 368 1013 411 1035 l 411 1133 b 318 1117 411 1133 364 1110 l 211 1133 b 118 1119 161 1142 118 1119 z m 21 0 l 174 0 l 193 167 l 333 167 l 354 0 l 507 0 l 375 972 l 153 972 z m 264 743 l 315 319 l 213 319 z "},"Ä":{"ha":528,"x_min":0,"x_max":0,"o":"m 226 1125 l 74 1125 l 74 1014 l 226 1014 z m 454 1125 l 301 1125 l 301 1014 l 454 1014 z m 21 0 l 174 0 l 193 167 l 333 167 l 354 0 l 507 0 l 375 972 l 153 972 z m 264 743 l 315 319 l 213 319 z "},"Ā":{"ha":528,"x_min":0,"x_max":0,"o":"m 110 1029 l 419 1029 l 419 1115 l 110 1115 z m 21 0 l 174 0 l 193 167 l 333 167 l 354 0 l 507 0 l 375 972 l 153 972 z m 264 743 l 315 319 l 213 319 z "},"Ă":{"ha":528,"x_min":0,"x_max":0,"o":"m 294 1014 b 392 1106 360 1014 392 1054 l 392 1140 l 294 1140 l 294 1099 l 233 1099 l 233 1140 l 136 1140 l 136 1106 b 233 1014 136 1054 168 1014 z m 21 0 l 174 0 l 193 167 l 333 167 l 354 0 l 507 0 l 375 972 l 153 972 z m 264 743 l 315 319 l 213 319 z "},"Å":{"ha":528,"x_min":0,"x_max":0,"o":"m 193 167 l 333 167 l 354 0 l 507 0 l 375 972 l 351 972 b 374 1039 365 990 374 1014 b 264 1149 374 1100 325 1149 b 154 1039 203 1149 154 1100 b 176 972 154 1014 163 990 l 153 972 l 21 0 l 174 0 z m 264 1079 b 304 1039 286 1079 304 1061 b 264 999 304 1017 286 999 b 224 1039 242 999 224 1017 b 264 1079 224 1061 242 1079 z m 264 743 l 315 319 l 213 319 z "},"Ǻ":{"ha":528,"x_min":0,"x_max":0,"o":"m 314 1169 l 428 1296 l 264 1296 l 206 1169 z m 193 167 l 333 167 l 354 0 l 507 0 l 375 972 l 351 972 b 374 1039 365 990 374 1014 b 264 1149 374 1100 325 1149 b 154 1039 203 1149 154 1100 b 176 972 154 1014 163 990 l 153 972 l 21 0 l 174 0 z m 264 1079 b 304 1039 286 1079 304 1061 b 264 999 304 1017 286 999 b 224 1039 242 999 224 1017 b 264 1079 224 1061 242 1079 z m 264 743 l 315 319 l 213 319 z "},"Ą":{"ha":528,"x_min":0,"x_max":0,"o":"m 306 -62 b 385 -125 306 -99 335 -125 l 489 -125 l 489 -39 l 438 -39 l 438 0 l 507 0 l 375 972 l 153 972 l 21 0 l 174 0 l 193 167 l 333 167 l 354 0 l 374 0 b 306 -62 339 0 306 -14 z m 264 743 l 315 319 l 213 319 z "},"Æ":{"ha":768,"x_min":0,"x_max":0,"o":"m 153 972 l 21 0 l 174 0 l 193 167 l 351 167 l 351 0 l 733 0 l 733 153 l 504 153 l 504 417 l 706 417 l 706 569 l 504 569 l 504 819 l 733 819 l 733 972 z m 274 819 l 351 819 l 351 319 l 213 319 z "},"Ǽ":{"ha":768,"x_min":0,"x_max":0,"o":"m 474 1014 l 588 1140 l 424 1140 l 365 1014 z m 153 972 l 21 0 l 174 0 l 193 167 l 351 167 l 351 0 l 733 0 l 733 153 l 504 153 l 504 417 l 706 417 l 706 569 l 504 569 l 504 819 l 733 819 l 733 972 z m 274 819 l 351 819 l 351 319 l 213 319 z "},"Ć":{"ha":556,"x_min":0,"x_max":0,"o":"m 326 1014 l 440 1140 l 276 1140 l 218 1014 z m 347 389 l 347 188 b 299 139 347 157 328 139 l 257 139 b 208 188 228 139 208 157 l 208 785 b 257 833 208 815 228 833 l 299 833 b 347 785 328 833 347 815 l 347 597 l 500 597 l 500 785 b 299 986 500 903 417 986 l 257 986 b 56 785 139 986 56 903 l 56 188 b 257 -14 56 69 139 -14 l 299 -14 b 500 188 417 -14 500 69 l 500 389 z "},"Ĉ":{"ha":556,"x_min":0,"x_max":0,"o":"m 224 1014 l 278 1065 l 333 1014 l 442 1014 l 350 1140 l 207 1140 l 115 1014 z m 347 389 l 347 188 b 299 139 347 157 328 139 l 257 139 b 208 188 228 139 208 157 l 208 785 b 257 833 208 815 228 833 l 299 833 b 347 785 328 833 347 815 l 347 597 l 500 597 l 500 785 b 299 986 500 903 417 986 l 257 986 b 56 785 139 986 56 903 l 56 188 b 257 -14 56 69 139 -14 l 299 -14 b 500 188 417 -14 500 69 l 500 389 z "},"Č":{"ha":556,"x_min":0,"x_max":0,"o":"m 115 1140 l 207 1014 l 350 1014 l 442 1140 l 333 1140 l 278 1089 l 224 1140 z m 347 389 l 347 188 b 299 139 347 157 328 139 l 257 139 b 208 188 228 139 208 157 l 208 785 b 257 833 208 815 228 833 l 299 833 b 347 785 328 833 347 815 l 347 597 l 500 597 l 500 785 b 299 986 500 903 417 986 l 257 986 b 56 785 139 986 56 903 l 56 188 b 257 -14 56 69 139 -14 l 299 -14 b 500 188 417 -14 500 69 l 500 389 z "},"Ċ":{"ha":556,"x_min":0,"x_max":0,"o":"m 218 1018 l 338 1018 l 338 1136 l 218 1136 z m 347 389 l 347 188 b 299 139 347 157 328 139 l 257 139 b 208 188 228 139 208 157 l 208 785 b 257 833 208 815 228 833 l 299 833 b 347 785 328 833 347 815 l 347 597 l 500 597 l 500 785 b 299 986 500 903 417 986 l 257 986 b 56 785 139 986 56 903 l 56 188 b 257 -14 56 69 139 -14 l 299 -14 b 500 188 417 -14 500 69 l 500 389 z "},"Ç":{"ha":556,"x_min":0,"x_max":0,"o":"m 369 -62 b 343 -10 369 -35 358 -18 b 500 188 438 8 500 85 l 500 389 l 347 389 l 347 188 b 299 139 347 157 328 139 l 257 139 b 208 188 228 139 208 157 l 208 785 b 257 833 208 815 228 833 l 299 833 b 347 785 328 833 347 815 l 347 597 l 500 597 l 500 785 b 299 986 500 903 417 986 l 257 986 b 56 785 139 986 56 903 l 56 188 b 238 -12 56 76 129 -4 l 238 -39 l 186 -39 l 186 -125 l 290 -125 b 369 -62 340 -125 369 -99 z "},"Ð":{"ha":556,"x_min":0,"x_max":0,"o":"m 500 201 l 500 771 b 299 972 500 896 417 972 l 56 972 l 56 569 l 7 569 l 7 417 l 56 417 l 56 0 l 299 0 b 500 201 417 0 500 83 z m 208 153 l 208 417 l 299 417 l 299 569 l 208 569 l 208 819 l 299 819 b 347 771 328 819 347 801 l 347 201 b 299 153 347 171 328 153 z "},"Ď":{"ha":556,"x_min":0,"x_max":0,"o":"m 115 1140 l 207 1014 l 350 1014 l 442 1140 l 333 1140 l 278 1089 l 224 1140 z m 500 771 b 299 972 500 896 417 972 l 56 972 l 56 0 l 299 0 b 500 201 417 0 500 83 z m 347 201 b 299 153 347 171 328 153 l 208 153 l 208 819 l 299 819 b 347 771 328 819 347 801 z "},"Đ":{"ha":556,"x_min":0,"x_max":0,"o":"m 500 201 l 500 771 b 299 972 500 896 417 972 l 56 972 l 56 569 l 7 569 l 7 417 l 56 417 l 56 0 l 299 0 b 500 201 417 0 500 83 z m 208 153 l 208 417 l 299 417 l 299 569 l 208 569 l 208 819 l 299 819 b 347 771 328 819 347 801 l 347 201 b 299 153 347 171 328 153 z "},"È":{"ha":472,"x_min":0,"x_max":0,"o":"m 313 1014 l 254 1140 l 90 1140 l 204 1014 z m 56 972 l 56 0 l 438 0 l 438 153 l 208 153 l 208 417 l 410 417 l 410 569 l 208 569 l 208 819 l 438 819 l 438 972 z "},"É":{"ha":472,"x_min":0,"x_max":0,"o":"m 300 1014 l 414 1140 l 250 1140 l 192 1014 z m 56 972 l 56 0 l 438 0 l 438 153 l 208 153 l 208 417 l 410 417 l 410 569 l 208 569 l 208 819 l 438 819 l 438 972 z "},"Ê":{"ha":472,"x_min":0,"x_max":0,"o":"m 197 1014 l 251 1065 l 307 1014 l 415 1014 l 324 1140 l 181 1140 l 89 1014 z m 56 972 l 56 0 l 438 0 l 438 153 l 208 153 l 208 417 l 410 417 l 410 569 l 208 569 l 208 819 l 438 819 l 438 972 z "},"Ě":{"ha":472,"x_min":0,"x_max":0,"o":"m 89 1140 l 181 1014 l 324 1014 l 415 1140 l 307 1140 l 251 1089 l 197 1140 z m 56 972 l 56 0 l 438 0 l 438 153 l 208 153 l 208 417 l 410 417 l 410 569 l 208 569 l 208 819 l 438 819 l 438 972 z "},"Ë":{"ha":472,"x_min":0,"x_max":0,"o":"m 214 1125 l 61 1125 l 61 1014 l 214 1014 z m 442 1125 l 289 1125 l 289 1014 l 442 1014 z m 56 972 l 56 0 l 438 0 l 438 153 l 208 153 l 208 417 l 410 417 l 410 569 l 208 569 l 208 819 l 438 819 l 438 972 z "},"Ē":{"ha":472,"x_min":0,"x_max":0,"o":"m 97 1029 l 407 1029 l 407 1115 l 97 1115 z m 56 972 l 56 0 l 438 0 l 438 153 l 208 153 l 208 417 l 410 417 l 410 569 l 208 569 l 208 819 l 438 819 l 438 972 z "},"Ĕ":{"ha":472,"x_min":0,"x_max":0,"o":"m 282 1014 b 379 1106 347 1014 379 1054 l 379 1140 l 282 1140 l 282 1099 l 221 1099 l 221 1140 l 124 1140 l 124 1106 b 221 1014 124 1054 156 1014 z m 56 972 l 56 0 l 438 0 l 438 153 l 208 153 l 208 417 l 410 417 l 410 569 l 208 569 l 208 819 l 438 819 l 438 972 z "},"Ė":{"ha":472,"x_min":0,"x_max":0,"o":"m 192 1018 l 311 1018 l 311 1136 l 192 1136 z m 56 972 l 56 0 l 438 0 l 438 153 l 208 153 l 208 417 l 410 417 l 410 569 l 208 569 l 208 819 l 438 819 l 438 972 z "},"Ę":{"ha":472,"x_min":0,"x_max":0,"o":"m 253 -62 b 332 -125 253 -99 282 -125 l 436 -125 l 436 -39 l 385 -39 l 385 0 l 438 0 l 438 153 l 208 153 l 208 417 l 410 417 l 410 569 l 208 569 l 208 819 l 438 819 l 438 972 l 56 972 l 56 0 l 321 0 b 253 -62 286 0 253 -14 z "},"Ĝ":{"ha":556,"x_min":0,"x_max":0,"o":"m 224 1014 l 278 1065 l 333 1014 l 442 1014 l 350 1140 l 207 1140 l 115 1014 z m 278 500 l 278 347 l 347 347 l 347 188 b 299 139 347 157 328 139 l 257 139 b 208 188 228 139 208 157 l 208 785 b 257 833 208 815 228 833 l 299 833 b 347 785 328 833 347 815 l 347 653 l 500 653 l 500 785 b 299 986 500 903 417 986 l 257 986 b 56 785 139 986 56 903 l 56 188 b 257 -14 56 69 139 -14 l 299 -14 b 500 188 417 -14 500 69 l 500 500 z "},"Ğ":{"ha":556,"x_min":0,"x_max":0,"o":"m 308 1014 b 406 1106 374 1014 406 1054 l 406 1140 l 308 1140 l 308 1099 l 247 1099 l 247 1140 l 150 1140 l 150 1106 b 247 1014 150 1054 182 1014 z m 278 500 l 278 347 l 347 347 l 347 188 b 299 139 347 157 328 139 l 257 139 b 208 188 228 139 208 157 l 208 785 b 257 833 208 815 228 833 l 299 833 b 347 785 328 833 347 815 l 347 653 l 500 653 l 500 785 b 299 986 500 903 417 986 l 257 986 b 56 785 139 986 56 903 l 56 188 b 257 -14 56 69 139 -14 l 299 -14 b 500 188 417 -14 500 69 l 500 500 z "},"Ġ":{"ha":556,"x_min":0,"x_max":0,"o":"m 218 1018 l 338 1018 l 338 1136 l 218 1136 z m 278 500 l 278 347 l 347 347 l 347 188 b 299 139 347 157 328 139 l 257 139 b 208 188 228 139 208 157 l 208 785 b 257 833 208 815 228 833 l 299 833 b 347 785 328 833 347 815 l 347 653 l 500 653 l 500 785 b 299 986 500 903 417 986 l 257 986 b 56 785 139 986 56 903 l 56 188 b 257 -14 56 69 139 -14 l 299 -14 b 500 188 417 -14 500 69 l 500 500 z "},"Ģ":{"ha":556,"x_min":0,"x_max":0,"o":"m 278 500 l 278 347 l 347 347 l 347 188 b 299 139 347 157 328 139 l 257 139 b 208 188 228 139 208 157 l 208 785 b 257 833 208 815 228 833 l 299 833 b 347 785 328 833 347 815 l 347 653 l 500 653 l 500 785 b 299 986 500 903 417 986 l 257 986 b 56 785 139 986 56 903 l 56 188 b 257 -14 56 69 139 -14 l 299 -14 b 500 188 417 -14 500 69 l 500 500 z m 328 -129 l 328 -32 l 229 -32 l 229 -137 l 264 -137 l 260 -210 l 304 -210 z "},"Ĥ":{"ha":556,"x_min":0,"x_max":0,"o":"m 224 1014 l 278 1065 l 333 1014 l 442 1014 l 350 1140 l 207 1140 l 115 1014 z m 500 972 l 347 972 l 347 569 l 208 569 l 208 972 l 56 972 l 56 0 l 208 0 l 208 417 l 347 417 l 347 0 l 500 0 z "},"Ħ":{"ha":556,"x_min":0,"x_max":0,"o":"m 208 417 l 347 417 l 347 0 l 500 0 l 500 664 l 549 664 l 549 817 l 500 817 l 500 972 l 347 972 l 347 817 l 208 817 l 208 972 l 56 972 l 56 817 l 7 817 l 7 664 l 56 664 l 56 0 l 208 0 z m 208 569 l 208 664 l 347 664 l 347 569 z "},"Ì":{"ha":264,"x_min":0,"x_max":0,"o":"m 193 1014 l 135 1140 l -29 1140 l 85 1014 z m 208 972 l 56 972 l 56 0 l 208 0 z "},"Í":{"ha":264,"x_min":0,"x_max":0,"o":"m 181 1014 l 294 1140 l 131 1140 l 72 1014 z m 208 972 l 56 972 l 56 0 l 208 0 z "},"Î":{"ha":264,"x_min":0,"x_max":0,"o":"m 78 1014 l 132 1065 l 188 1014 l 296 1014 l 204 1140 l 61 1140 l -31 1014 z m 208 972 l 56 972 l 56 0 l 208 0 z "},"Ĩ":{"ha":264,"x_min":0,"x_max":0,"o":"m -14 1021 b 79 1038 -14 1021 35 1044 l 186 1021 b 279 1035 236 1013 279 1035 l 279 1133 b 186 1117 279 1133 232 1110 l 79 1133 b -14 1119 29 1142 -14 1119 z m 208 972 l 56 972 l 56 0 l 208 0 z "},"Ï":{"ha":264,"x_min":0,"x_max":0,"o":"m 94 1125 l -58 1125 l -58 1014 l 94 1014 z m 322 1125 l 169 1125 l 169 1014 l 322 1014 z m 208 972 l 56 972 l 56 0 l 208 0 z "},"Ī":{"ha":264,"x_min":0,"x_max":0,"o":"m -22 1029 l 288 1029 l 288 1115 l -22 1115 z m 208 972 l 56 972 l 56 0 l 208 0 z "},"Ĭ":{"ha":264,"x_min":0,"x_max":0,"o":"m 163 1014 b 260 1106 228 1014 260 1054 l 260 1140 l 163 1140 l 163 1099 l 101 1099 l 101 1140 l 4 1140 l 4 1106 b 101 1014 4 1054 36 1014 z m 208 972 l 56 972 l 56 0 l 208 0 z "},"İ":{"ha":264,"x_min":0,"x_max":0,"o":"m 72 1018 l 192 1018 l 192 1136 l 72 1136 z m 208 972 l 56 972 l 56 0 l 208 0 z "},"Į":{"ha":264,"x_min":0,"x_max":0,"o":"m 19 -62 b 99 -125 19 -99 49 -125 l 203 -125 l 203 -39 l 151 -39 l 151 0 l 208 0 l 208 972 l 56 972 l 56 0 l 88 0 b 19 -62 53 0 19 -14 z "},"Ĳ":{"ha":819,"x_min":0,"x_max":0,"o":"m 208 972 l 56 972 l 56 0 l 208 0 z m 611 972 l 611 188 b 563 139 611 157 592 139 l 521 139 b 472 188 492 139 472 157 l 472 389 l 319 389 l 319 188 b 521 -14 319 69 403 -14 l 563 -14 b 764 188 681 -14 764 69 l 764 972 z "},"Ĵ":{"ha":556,"x_min":0,"x_max":0,"o":"m 376 1014 l 431 1065 l 486 1014 l 594 1014 l 503 1140 l 360 1140 l 268 1014 z m 347 972 l 347 188 b 299 139 347 157 328 139 l 257 139 b 208 188 228 139 208 157 l 208 389 l 56 389 l 56 188 b 257 -14 56 69 139 -14 l 299 -14 b 500 188 417 -14 500 69 l 500 972 z "},"Ķ":{"ha":560,"x_min":0,"x_max":0,"o":"m 372 0 l 539 0 l 338 569 l 517 972 l 350 972 l 208 610 l 208 972 l 56 972 l 56 0 l 208 0 l 208 278 l 250 386 z m 343 -129 l 343 -32 l 244 -32 l 244 -137 l 279 -137 l 275 -210 l 319 -210 z "},"Ĺ":{"ha":424,"x_min":0,"x_max":0,"o":"m 182 1014 l 296 1140 l 132 1140 l 74 1014 z m 208 153 l 208 972 l 56 972 l 56 0 l 403 0 l 403 153 z "},"Ľ":{"ha":424,"x_min":0,"x_max":0,"o":"m 208 153 l 208 972 l 56 972 l 56 0 l 403 0 l 403 153 z m 360 776 l 418 972 l 282 972 l 251 776 z "},"Ļ":{"ha":424,"x_min":0,"x_max":0,"o":"m 208 153 l 208 972 l 56 972 l 56 0 l 403 0 l 403 153 z m 275 -129 l 275 -32 l 176 -32 l 176 -137 l 211 -137 l 207 -210 l 251 -210 z "},"Ł":{"ha":424,"x_min":0,"x_max":0,"o":"m 403 153 l 208 153 l 208 432 l 319 465 l 319 618 l 208 585 l 208 972 l 56 972 l 56 538 l 0 521 l 0 368 l 56 385 l 56 0 l 403 0 z "},"Ŀ":{"ha":424,"x_min":0,"x_max":0,"o":"m 208 153 l 208 972 l 56 972 l 56 0 l 403 0 l 403 153 z m 286 481 l 406 481 l 406 599 l 286 599 z "},"Ń":{"ha":542,"x_min":0,"x_max":0,"o":"m 319 1014 l 433 1140 l 269 1140 l 211 1014 z m 486 0 l 486 972 l 333 972 l 333 518 l 146 972 l 56 972 l 56 0 l 208 0 l 208 461 l 396 0 z "},"Ň":{"ha":542,"x_min":0,"x_max":0,"o":"m 108 1140 l 200 1014 l 343 1014 l 435 1140 l 326 1140 l 271 1089 l 217 1140 z m 486 0 l 486 972 l 333 972 l 333 518 l 146 972 l 56 972 l 56 0 l 208 0 l 208 461 l 396 0 z "},"Ñ":{"ha":542,"x_min":0,"x_max":0,"o":"m 125 1021 b 218 1038 125 1021 174 1044 l 325 1021 b 418 1035 375 1013 418 1035 l 418 1133 b 325 1117 418 1133 371 1110 l 218 1133 b 125 1119 168 1142 125 1119 z m 486 0 l 486 972 l 333 972 l 333 518 l 146 972 l 56 972 l 56 0 l 208 0 l 208 461 l 396 0 z "},"Ņ":{"ha":542,"x_min":0,"x_max":0,"o":"m 486 0 l 486 972 l 333 972 l 333 518 l 146 972 l 56 972 l 56 0 l 208 0 l 208 461 l 396 0 z m 335 -129 l 335 -32 l 236 -32 l 236 -137 l 271 -137 l 267 -210 l 311 -210 z "},"Ŋ":{"ha":542,"x_min":0,"x_max":0,"o":"m 333 972 l 333 518 l 146 972 l 56 972 l 56 0 l 208 0 l 208 461 l 333 154 l 333 -7 b 285 -56 333 -37 314 -56 l 257 -56 l 257 -208 l 285 -208 b 486 -7 403 -208 486 -125 l 486 972 z "},"Ò":{"ha":556,"x_min":0,"x_max":0,"o":"m 339 1014 l 281 1140 l 117 1140 l 231 1014 z m 299 -14 b 500 188 417 -14 500 69 l 500 785 b 299 986 500 903 417 986 l 257 986 b 56 785 139 986 56 903 l 56 188 b 257 -14 56 69 139 -14 z m 257 139 b 208 188 228 139 208 157 l 208 785 b 257 833 208 815 228 833 l 299 833 b 347 785 328 833 347 815 l 347 188 b 299 139 347 157 328 139 z "},"Ó":{"ha":556,"x_min":0,"x_max":0,"o":"m 326 1014 l 440 1140 l 276 1140 l 218 1014 z m 299 -14 b 500 188 417 -14 500 69 l 500 785 b 299 986 500 903 417 986 l 257 986 b 56 785 139 986 56 903 l 56 188 b 257 -14 56 69 139 -14 z m 257 139 b 208 188 228 139 208 157 l 208 785 b 257 833 208 815 228 833 l 299 833 b 347 785 328 833 347 815 l 347 188 b 299 139 347 157 328 139 z "},"Ô":{"ha":556,"x_min":0,"x_max":0,"o":"m 224 1014 l 278 1065 l 333 1014 l 442 1014 l 350 1140 l 207 1140 l 115 1014 z m 299 -14 b 500 188 417 -14 500 69 l 500 785 b 299 986 500 903 417 986 l 257 986 b 56 785 139 986 56 903 l 56 188 b 257 -14 56 69 139 -14 z m 257 139 b 208 188 228 139 208 157 l 208 785 b 257 833 208 815 228 833 l 299 833 b 347 785 328 833 347 815 l 347 188 b 299 139 347 157 328 139 z "},"Õ":{"ha":556,"x_min":0,"x_max":0,"o":"m 132 1021 b 225 1038 132 1021 181 1044 l 332 1021 b 425 1035 382 1013 425 1035 l 425 1133 b 332 1117 425 1133 378 1110 l 225 1133 b 132 1119 175 1142 132 1119 z m 299 -14 b 500 188 417 -14 500 69 l 500 785 b 299 986 500 903 417 986 l 257 986 b 56 785 139 986 56 903 l 56 188 b 257 -14 56 69 139 -14 z m 257 139 b 208 188 228 139 208 157 l 208 785 b 257 833 208 815 228 833 l 299 833 b 347 785 328 833 347 815 l 347 188 b 299 139 347 157 328 139 z "},"Ö":{"ha":556,"x_min":0,"x_max":0,"o":"m 240 1125 l 88 1125 l 88 1014 l 240 1014 z m 468 1125 l 315 1125 l 315 1014 l 468 1014 z m 299 -14 b 500 188 417 -14 500 69 l 500 785 b 299 986 500 903 417 986 l 257 986 b 56 785 139 986 56 903 l 56 188 b 257 -14 56 69 139 -14 z m 257 139 b 208 188 228 139 208 157 l 208 785 b 257 833 208 815 228 833 l 299 833 b 347 785 328 833 347 815 l 347 188 b 299 139 347 157 328 139 z "},"Ō":{"ha":556,"x_min":0,"x_max":0,"o":"m 124 1029 l 433 1029 l 433 1115 l 124 1115 z m 299 -14 b 500 188 417 -14 500 69 l 500 785 b 299 986 500 903 417 986 l 257 986 b 56 785 139 986 56 903 l 56 188 b 257 -14 56 69 139 -14 z m 257 139 b 208 188 228 139 208 157 l 208 785 b 257 833 208 815 228 833 l 299 833 b 347 785 328 833 347 815 l 347 188 b 299 139 347 157 328 139 z "},"Ŏ":{"ha":556,"x_min":0,"x_max":0,"o":"m 308 1014 b 406 1106 374 1014 406 1054 l 406 1140 l 308 1140 l 308 1099 l 247 1099 l 247 1140 l 150 1140 l 150 1106 b 247 1014 150 1054 182 1014 z m 299 -14 b 500 188 417 -14 500 69 l 500 785 b 299 986 500 903 417 986 l 257 986 b 56 785 139 986 56 903 l 56 188 b 257 -14 56 69 139 -14 z m 257 139 b 208 188 228 139 208 157 l 208 785 b 257 833 208 815 228 833 l 299 833 b 347 785 328 833 347 815 l 347 188 b 299 139 347 157 328 139 z "},"Ő":{"ha":556,"x_min":0,"x_max":0,"o":"m 147 1140 l 126 1014 l 185 1014 l 265 1140 z m 313 1140 l 292 1014 l 350 1014 l 431 1140 z m 299 -14 b 500 188 417 -14 500 69 l 500 785 b 299 986 500 903 417 986 l 257 986 b 56 785 139 986 56 903 l 56 188 b 257 -14 56 69 139 -14 z m 257 139 b 208 188 228 139 208 157 l 208 785 b 257 833 208 815 228 833 l 299 833 b 347 785 328 833 347 815 l 347 188 b 299 139 347 157 328 139 z "},"Ø":{"ha":556,"x_min":0,"x_max":0,"o":"m 299 -14 b 500 188 417 -14 500 69 l 500 785 b 461 908 500 832 486 875 l 496 1042 l 371 1042 l 353 979 b 299 986 336 983 318 986 l 257 986 b 56 785 139 986 56 903 l 56 188 b 94 63 56 139 69 96 l 61 -69 l 186 -69 l 203 -7 b 257 -14 219 -11 238 -14 z m 299 833 b 310 832 303 833 306 833 l 208 438 l 208 785 b 257 833 208 815 228 833 z m 247 139 l 347 529 l 347 188 b 299 139 347 157 328 139 z "},"Ǿ":{"ha":556,"x_min":0,"x_max":0,"o":"m 313 1014 l 426 1140 l 263 1140 l 204 1014 z m 299 -14 b 500 188 417 -14 500 69 l 500 785 b 461 908 500 832 486 875 l 496 1042 l 371 1042 l 353 979 b 299 986 336 983 318 986 l 257 986 b 56 785 139 986 56 903 l 56 188 b 94 63 56 139 69 96 l 61 -69 l 186 -69 l 203 -7 b 257 -14 219 -11 238 -14 z m 299 833 b 310 832 303 833 306 833 l 208 438 l 208 785 b 257 833 208 815 228 833 z m 247 139 l 347 529 l 347 188 b 299 139 347 157 328 139 z "},"Œ":{"ha":764,"x_min":0,"x_max":0,"o":"m 257 972 b 56 771 139 972 56 889 l 56 201 b 257 0 56 83 139 0 l 729 0 l 729 153 l 500 153 l 500 417 l 701 417 l 701 569 l 500 569 l 500 819 l 729 819 l 729 972 z m 347 153 l 257 153 b 208 201 228 153 208 171 l 208 771 b 257 819 208 801 228 819 l 347 819 z "},"Ŕ":{"ha":535,"x_min":0,"x_max":0,"o":"m 315 1014 l 429 1140 l 265 1140 l 207 1014 z m 406 403 b 500 576 464 436 500 499 l 500 771 b 299 972 500 896 417 972 l 56 972 l 56 0 l 208 0 l 208 375 l 272 375 l 333 0 l 514 0 z m 208 819 l 299 819 b 347 771 328 819 347 801 l 347 576 b 299 528 347 546 328 528 l 208 528 z "},"Ř":{"ha":535,"x_min":0,"x_max":0,"o":"m 104 1140 l 196 1014 l 339 1014 l 431 1140 l 322 1140 l 267 1089 l 213 1140 z m 406 403 b 500 576 464 436 500 499 l 500 771 b 299 972 500 896 417 972 l 56 972 l 56 0 l 208 0 l 208 375 l 272 375 l 333 0 l 514 0 z m 208 819 l 299 819 b 347 771 328 819 347 801 l 347 576 b 299 528 347 546 328 528 l 208 528 z "},"Ŗ":{"ha":535,"x_min":0,"x_max":0,"o":"m 406 403 b 500 576 464 436 500 499 l 500 771 b 299 972 500 896 417 972 l 56 972 l 56 0 l 208 0 l 208 375 l 272 375 l 333 0 l 514 0 z m 208 819 l 299 819 b 347 771 328 819 347 801 l 347 576 b 299 528 347 546 328 528 l 208 528 z m 322 -129 l 322 -32 l 224 -32 l 224 -137 l 258 -137 l 254 -210 l 299 -210 z "},"Ś":{"ha":556,"x_min":0,"x_max":0,"o":"m 340 1014 l 454 1140 l 290 1140 l 232 1014 z m 347 188 b 299 139 347 157 328 139 l 257 139 b 208 188 228 139 208 157 l 208 333 l 56 333 l 56 188 b 257 -14 56 69 139 -14 l 299 -14 b 500 188 417 -14 500 69 l 500 264 b 388 486 500 360 460 408 l 261 624 b 208 722 225 664 208 683 l 208 785 b 257 833 208 815 228 833 l 292 833 b 340 785 321 833 340 815 l 340 653 l 493 653 l 493 785 b 292 986 493 903 410 986 l 257 986 b 56 785 139 986 56 903 l 56 722 b 168 500 56 626 96 578 l 296 361 b 347 264 332 321 347 303 z "},"Ŝ":{"ha":556,"x_min":0,"x_max":0,"o":"m 238 1014 l 292 1065 l 347 1014 l 456 1014 l 364 1140 l 221 1140 l 129 1014 z m 347 188 b 299 139 347 157 328 139 l 257 139 b 208 188 228 139 208 157 l 208 333 l 56 333 l 56 188 b 257 -14 56 69 139 -14 l 299 -14 b 500 188 417 -14 500 69 l 500 264 b 388 486 500 360 460 408 l 261 624 b 208 722 225 664 208 683 l 208 785 b 257 833 208 815 228 833 l 292 833 b 340 785 321 833 340 815 l 340 653 l 493 653 l 493 785 b 292 986 493 903 410 986 l 257 986 b 56 785 139 986 56 903 l 56 722 b 168 500 56 626 96 578 l 296 361 b 347 264 332 321 347 303 z "},"Š":{"ha":556,"x_min":0,"x_max":0,"o":"m 129 1140 l 221 1014 l 364 1014 l 456 1140 l 347 1140 l 292 1089 l 238 1140 z m 347 188 b 299 139 347 157 328 139 l 257 139 b 208 188 228 139 208 157 l 208 333 l 56 333 l 56 188 b 257 -14 56 69 139 -14 l 299 -14 b 500 188 417 -14 500 69 l 500 264 b 388 486 500 360 460 408 l 261 624 b 208 722 225 664 208 683 l 208 785 b 257 833 208 815 228 833 l 292 833 b 340 785 321 833 340 815 l 340 653 l 493 653 l 493 785 b 292 986 493 903 410 986 l 257 986 b 56 785 139 986 56 903 l 56 722 b 168 500 56 626 96 578 l 296 361 b 347 264 332 321 347 303 z "},"Ş":{"ha":556,"x_min":0,"x_max":0,"o":"m 369 -62 b 343 -10 369 -35 358 -18 b 500 188 438 8 500 85 l 500 264 b 388 486 500 360 460 408 l 261 624 b 208 722 225 664 208 683 l 208 785 b 257 833 208 815 228 833 l 292 833 b 340 785 321 833 340 815 l 340 653 l 493 653 l 493 785 b 292 986 493 903 410 986 l 257 986 b 56 785 139 986 56 903 l 56 722 b 168 500 56 626 96 578 l 296 361 b 347 264 332 321 347 303 l 347 188 b 299 139 347 157 328 139 l 257 139 b 208 188 228 139 208 157 l 208 333 l 56 333 l 56 188 b 238 -12 56 76 129 -4 l 238 -39 l 186 -39 l 186 -125 l 290 -125 b 369 -62 340 -125 369 -99 z "},"Ș":{"ha":556,"x_min":0,"x_max":0,"o":"m 347 188 b 299 139 347 157 328 139 l 257 139 b 208 188 228 139 208 157 l 208 333 l 56 333 l 56 188 b 257 -14 56 69 139 -14 l 299 -14 b 500 188 417 -14 500 69 l 500 264 b 388 486 500 360 460 408 l 261 624 b 208 722 225 664 208 683 l 208 785 b 257 833 208 815 228 833 l 292 833 b 340 785 321 833 340 815 l 340 653 l 493 653 l 493 785 b 292 986 493 903 410 986 l 257 986 b 56 785 139 986 56 903 l 56 722 b 168 500 56 626 96 578 l 296 361 b 347 264 332 321 347 303 z m 328 -129 l 328 -32 l 229 -32 l 229 -137 l 264 -137 l 260 -210 l 304 -210 z "},"Ť":{"ha":514,"x_min":0,"x_max":0,"o":"m 94 1140 l 186 1014 l 329 1014 l 421 1140 l 313 1140 l 257 1089 l 203 1140 z m 21 972 l 21 819 l 181 819 l 181 0 l 333 0 l 333 819 l 493 819 l 493 972 z "},"Ț":{"ha":514,"x_min":0,"x_max":0,"o":"m 21 972 l 21 819 l 181 819 l 181 0 l 333 0 l 333 819 l 493 819 l 493 972 z m 307 -129 l 307 -32 l 208 -32 l 208 -137 l 243 -137 l 239 -210 l 283 -210 z "},"Ŧ":{"ha":514,"x_min":0,"x_max":0,"o":"m 424 410 l 424 563 l 333 563 l 333 819 l 493 819 l 493 972 l 21 972 l 21 819 l 181 819 l 181 563 l 90 563 l 90 410 l 181 410 l 181 0 l 333 0 l 333 410 z "},"Ţ":{"ha":514,"x_min":0,"x_max":0,"o":"m 165 -39 l 165 -125 l 269 -125 b 349 -62 319 -125 349 -99 b 281 0 349 -14 315 0 l 333 0 l 333 819 l 493 819 l 493 972 l 21 972 l 21 819 l 181 819 l 181 0 l 217 0 l 217 -39 z "},"Ù":{"ha":556,"x_min":0,"x_max":0,"o":"m 339 1014 l 281 1140 l 117 1140 l 231 1014 z m 500 972 l 347 972 l 347 188 b 299 139 347 157 328 139 l 257 139 b 208 188 228 139 208 157 l 208 972 l 56 972 l 56 188 b 257 -14 56 69 139 -14 l 299 -14 b 500 188 417 -14 500 69 z "},"Ú":{"ha":556,"x_min":0,"x_max":0,"o":"m 326 1014 l 440 1140 l 276 1140 l 218 1014 z m 500 972 l 347 972 l 347 188 b 299 139 347 157 328 139 l 257 139 b 208 188 228 139 208 157 l 208 972 l 56 972 l 56 188 b 257 -14 56 69 139 -14 l 299 -14 b 500 188 417 -14 500 69 z "},"Û":{"ha":556,"x_min":0,"x_max":0,"o":"m 224 1014 l 278 1065 l 333 1014 l 442 1014 l 350 1140 l 207 1140 l 115 1014 z m 500 972 l 347 972 l 347 188 b 299 139 347 157 328 139 l 257 139 b 208 188 228 139 208 157 l 208 972 l 56 972 l 56 188 b 257 -14 56 69 139 -14 l 299 -14 b 500 188 417 -14 500 69 z "},"Ũ":{"ha":556,"x_min":0,"x_max":0,"o":"m 132 1021 b 225 1038 132 1021 181 1044 l 332 1021 b 425 1035 382 1013 425 1035 l 425 1133 b 332 1117 425 1133 378 1110 l 225 1133 b 132 1119 175 1142 132 1119 z m 500 972 l 347 972 l 347 188 b 299 139 347 157 328 139 l 257 139 b 208 188 228 139 208 157 l 208 972 l 56 972 l 56 188 b 257 -14 56 69 139 -14 l 299 -14 b 500 188 417 -14 500 69 z "},"Ü":{"ha":556,"x_min":0,"x_max":0,"o":"m 240 1125 l 88 1125 l 88 1014 l 240 1014 z m 468 1125 l 315 1125 l 315 1014 l 468 1014 z m 500 972 l 347 972 l 347 188 b 299 139 347 157 328 139 l 257 139 b 208 188 228 139 208 157 l 208 972 l 56 972 l 56 188 b 257 -14 56 69 139 -14 l 299 -14 b 500 188 417 -14 500 69 z "},"Ū":{"ha":556,"x_min":0,"x_max":0,"o":"m 124 1029 l 433 1029 l 433 1115 l 124 1115 z m 500 972 l 347 972 l 347 188 b 299 139 347 157 328 139 l 257 139 b 208 188 228 139 208 157 l 208 972 l 56 972 l 56 188 b 257 -14 56 69 139 -14 l 299 -14 b 500 188 417 -14 500 69 z "},"Ŭ":{"ha":556,"x_min":0,"x_max":0,"o":"m 308 1014 b 406 1106 374 1014 406 1054 l 406 1140 l 308 1140 l 308 1099 l 247 1099 l 247 1140 l 150 1140 l 150 1106 b 247 1014 150 1054 182 1014 z m 500 972 l 347 972 l 347 188 b 299 139 347 157 328 139 l 257 139 b 208 188 228 139 208 157 l 208 972 l 56 972 l 56 188 b 257 -14 56 69 139 -14 l 299 -14 b 500 188 417 -14 500 69 z "},"Ů":{"ha":556,"x_min":0,"x_max":0,"o":"m 278 985 b 388 1094 339 985 388 1033 b 278 1204 388 1156 339 1204 b 168 1094 217 1204 168 1156 b 278 985 168 1033 217 985 z m 278 1135 b 318 1094 300 1135 318 1117 b 278 1054 318 1072 300 1054 b 238 1094 256 1054 238 1072 b 278 1135 238 1117 256 1135 z m 500 972 l 347 972 l 347 188 b 299 139 347 157 328 139 l 257 139 b 208 188 228 139 208 157 l 208 972 l 56 972 l 56 188 b 257 -14 56 69 139 -14 l 299 -14 b 500 188 417 -14 500 69 z "},"Ű":{"ha":556,"x_min":0,"x_max":0,"o":"m 147 1140 l 126 1014 l 185 1014 l 265 1140 z m 313 1140 l 292 1014 l 350 1014 l 431 1140 z m 500 972 l 347 972 l 347 188 b 299 139 347 157 328 139 l 257 139 b 208 188 228 139 208 157 l 208 972 l 56 972 l 56 188 b 257 -14 56 69 139 -14 l 299 -14 b 500 188 417 -14 500 69 z "},"Ų":{"ha":556,"x_min":0,"x_max":0,"o":"m 371 -39 l 319 -39 l 319 -12 b 500 188 426 -4 500 76 l 500 972 l 347 972 l 347 188 b 299 139 347 157 328 139 l 257 139 b 208 188 228 139 208 157 l 208 972 l 56 972 l 56 188 b 214 -10 56 85 119 8 b 188 -62 199 -19 188 -35 b 267 -125 188 -99 217 -125 l 371 -125 z "},"Ẁ":{"ha":757,"x_min":0,"x_max":0,"o":"m 439 1014 l 381 1140 l 217 1140 l 331 1014 z m 518 361 l 424 972 l 333 972 l 239 361 l 174 972 l 21 972 l 139 0 l 319 0 l 378 424 l 438 0 l 618 0 l 736 972 l 583 972 z "},"Ẃ":{"ha":757,"x_min":0,"x_max":0,"o":"m 426 1014 l 540 1140 l 376 1140 l 318 1014 z m 518 361 l 424 972 l 333 972 l 239 361 l 174 972 l 21 972 l 139 0 l 319 0 l 378 424 l 438 0 l 618 0 l 736 972 l 583 972 z "},"Ŵ":{"ha":757,"x_min":0,"x_max":0,"o":"m 324 1014 l 378 1065 l 433 1014 l 542 1014 l 450 1140 l 307 1140 l 215 1014 z m 518 361 l 424 972 l 333 972 l 239 361 l 174 972 l 21 972 l 139 0 l 319 0 l 378 424 l 438 0 l 618 0 l 736 972 l 583 972 z "},"Ẅ":{"ha":757,"x_min":0,"x_max":0,"o":"m 340 1125 l 188 1125 l 188 1014 l 340 1014 z m 568 1125 l 415 1125 l 415 1014 l 568 1014 z m 518 361 l 424 972 l 333 972 l 239 361 l 174 972 l 21 972 l 139 0 l 319 0 l 378 424 l 438 0 l 618 0 l 736 972 l 583 972 z "},"Ỳ":{"ha":500,"x_min":0,"x_max":0,"o":"m 311 1014 l 253 1140 l 89 1140 l 203 1014 z m 326 333 l 479 972 l 326 972 l 250 551 l 174 972 l 21 972 l 174 333 l 174 0 l 326 0 z "},"Ý":{"ha":500,"x_min":0,"x_max":0,"o":"m 299 1014 l 413 1140 l 249 1140 l 190 1014 z m 326 333 l 479 972 l 326 972 l 250 551 l 174 972 l 21 972 l 174 333 l 174 0 l 326 0 z "},"Ŷ":{"ha":500,"x_min":0,"x_max":0,"o":"m 196 1014 l 250 1065 l 306 1014 l 414 1014 l 322 1140 l 179 1140 l 88 1014 z m 326 333 l 479 972 l 326 972 l 250 551 l 174 972 l 21 972 l 174 333 l 174 0 l 326 0 z "},"Ÿ":{"ha":500,"x_min":0,"x_max":0,"o":"m 213 1125 l 60 1125 l 60 1014 l 213 1014 z m 440 1125 l 288 1125 l 288 1014 l 440 1014 z m 326 333 l 479 972 l 326 972 l 250 551 l 174 972 l 21 972 l 174 333 l 174 0 l 326 0 z "},"Ź":{"ha":418,"x_min":0,"x_max":0,"o":"m 257 1014 l 371 1140 l 207 1140 l 149 1014 z m 200 153 l 397 917 l 397 972 l 28 972 l 28 819 l 218 819 l 21 56 l 21 0 l 397 0 l 397 153 z "},"Ž":{"ha":418,"x_min":0,"x_max":0,"o":"m 46 1140 l 138 1014 l 281 1014 l 372 1140 l 264 1140 l 208 1089 l 154 1140 z m 200 153 l 397 917 l 397 972 l 28 972 l 28 819 l 218 819 l 21 56 l 21 0 l 397 0 l 397 153 z "},"Ż":{"ha":418,"x_min":0,"x_max":0,"o":"m 149 1018 l 268 1018 l 268 1136 l 149 1136 z m 200 153 l 397 917 l 397 972 l 28 972 l 28 819 l 218 819 l 21 56 l 21 0 l 397 0 l 397 153 z "},"Þ":{"ha":556,"x_min":0,"x_max":0,"o":"m 208 175 l 299 175 b 500 376 417 175 500 258 l 500 624 b 299 825 500 749 417 825 l 208 825 l 208 972 l 56 972 l 56 0 l 208 0 z m 208 672 l 299 672 b 347 624 328 672 347 654 l 347 376 b 299 328 347 346 328 328 l 208 328 z "},"a":{"ha":528,"x_min":0,"x_max":0,"o":"m 21 0 l 174 0 l 193 167 l 333 167 l 354 0 l 507 0 l 375 972 l 153 972 z m 264 743 l 315 319 l 213 319 z "},"b":{"ha":556,"x_min":0,"x_max":0,"o":"m 299 0 b 500 201 417 0 500 83 l 500 340 b 417 493 500 424 471 479 b 500 646 471 507 500 563 l 500 771 b 299 972 500 896 417 972 l 56 972 l 56 0 z m 208 569 l 208 819 l 299 819 b 347 771 328 819 347 801 l 347 618 b 299 569 347 588 328 569 z m 208 153 l 208 417 l 299 417 b 347 368 328 417 347 399 l 347 201 b 299 153 347 171 328 153 z "},"c":{"ha":556,"x_min":0,"x_max":0,"o":"m 347 389 l 347 188 b 299 139 347 157 328 139 l 257 139 b 208 188 228 139 208 157 l 208 785 b 257 833 208 815 228 833 l 299 833 b 347 785 328 833 347 815 l 347 597 l 500 597 l 500 785 b 299 986 500 903 417 986 l 257 986 b 56 785 139 986 56 903 l 56 188 b 257 -14 56 69 139 -14 l 299 -14 b 500 188 417 -14 500 69 l 500 389 z "},"d":{"ha":556,"x_min":0,"x_max":0,"o":"m 500 771 b 299 972 500 896 417 972 l 56 972 l 56 0 l 299 0 b 500 201 417 0 500 83 z m 347 201 b 299 153 347 171 328 153 l 208 153 l 208 819 l 299 819 b 347 771 328 819 347 801 z "},"e":{"ha":472,"x_min":0,"x_max":0,"o":"m 56 972 l 56 0 l 438 0 l 438 153 l 208 153 l 208 417 l 410 417 l 410 569 l 208 569 l 208 819 l 438 819 l 438 972 z "},"f":{"ha":458,"x_min":0,"x_max":0,"o":"m 56 972 l 56 0 l 208 0 l 208 417 l 410 417 l 410 569 l 208 569 l 208 819 l 438 819 l 438 972 z "},"g":{"ha":556,"x_min":0,"x_max":0,"o":"m 278 500 l 278 347 l 347 347 l 347 188 b 299 139 347 157 328 139 l 257 139 b 208 188 228 139 208 157 l 208 785 b 257 833 208 815 228 833 l 299 833 b 347 785 328 833 347 815 l 347 653 l 500 653 l 500 785 b 299 986 500 903 417 986 l 257 986 b 56 785 139 986 56 903 l 56 188 b 257 -14 56 69 139 -14 l 299 -14 b 500 188 417 -14 500 69 l 500 500 z "},"h":{"ha":556,"x_min":0,"x_max":0,"o":"m 500 972 l 347 972 l 347 569 l 208 569 l 208 972 l 56 972 l 56 0 l 208 0 l 208 417 l 347 417 l 347 0 l 500 0 z "},"i":{"ha":264,"x_min":0,"x_max":0,"o":"m 208 972 l 56 972 l 56 0 l 208 0 z "},"j":{"ha":556,"x_min":0,"x_max":0,"o":"m 347 972 l 347 188 b 299 139 347 157 328 139 l 257 139 b 208 188 228 139 208 157 l 208 389 l 56 389 l 56 188 b 257 -14 56 69 139 -14 l 299 -14 b 500 188 417 -14 500 69 l 500 972 z "},"k":{"ha":560,"x_min":0,"x_max":0,"o":"m 372 0 l 539 0 l 338 569 l 517 972 l 350 972 l 208 610 l 208 972 l 56 972 l 56 0 l 208 0 l 208 278 l 250 386 z "},"l":{"ha":424,"x_min":0,"x_max":0,"o":"m 208 153 l 208 972 l 56 972 l 56 0 l 403 0 l 403 153 z "},"m":{"ha":736,"x_min":0,"x_max":0,"o":"m 681 972 l 493 972 l 368 469 l 243 972 l 56 972 l 56 0 l 208 0 l 208 535 l 347 28 l 389 28 l 528 535 l 528 0 l 681 0 z "},"n":{"ha":542,"x_min":0,"x_max":0,"o":"m 486 0 l 486 972 l 333 972 l 333 518 l 146 972 l 56 972 l 56 0 l 208 0 l 208 461 l 396 0 z "},"o":{"ha":556,"x_min":0,"x_max":0,"o":"m 299 -14 b 500 188 417 -14 500 69 l 500 785 b 299 986 500 903 417 986 l 257 986 b 56 785 139 986 56 903 l 56 188 b 257 -14 56 69 139 -14 z m 257 139 b 208 188 228 139 208 157 l 208 785 b 257 833 208 815 228 833 l 299 833 b 347 785 328 833 347 815 l 347 188 b 299 139 347 157 328 139 z "},"p":{"ha":556,"x_min":0,"x_max":0,"o":"m 208 347 l 299 347 b 500 549 417 347 500 431 l 500 771 b 299 972 500 896 417 972 l 56 972 l 56 0 l 208 0 z m 208 819 l 299 819 b 347 771 328 819 347 801 l 347 549 b 299 500 347 518 328 500 l 208 500 z "},"q":{"ha":556,"x_min":0,"x_max":0,"o":"m 329 -11 b 500 188 429 1 500 79 l 500 785 b 299 986 500 903 417 986 l 257 986 b 56 785 139 986 56 903 l 56 188 b 226 -11 56 79 125 1 l 199 -125 l 357 -125 z m 257 139 b 208 188 228 139 208 157 l 208 785 b 257 833 208 815 228 833 l 299 833 b 347 785 328 833 347 815 l 347 188 b 299 139 347 157 328 139 z "},"r":{"ha":535,"x_min":0,"x_max":0,"o":"m 406 403 b 500 576 464 436 500 499 l 500 771 b 299 972 500 896 417 972 l 56 972 l 56 0 l 208 0 l 208 375 l 272 375 l 333 0 l 514 0 z m 208 819 l 299 819 b 347 771 328 819 347 801 l 347 576 b 299 528 347 546 328 528 l 208 528 z "},"s":{"ha":556,"x_min":0,"x_max":0,"o":"m 347 188 b 299 139 347 157 328 139 l 257 139 b 208 188 228 139 208 157 l 208 333 l 56 333 l 56 188 b 257 -14 56 69 139 -14 l 299 -14 b 500 188 417 -14 500 69 l 500 264 b 388 486 500 360 460 408 l 261 624 b 208 722 225 664 208 683 l 208 785 b 257 833 208 815 228 833 l 292 833 b 340 785 321 833 340 815 l 340 653 l 493 653 l 493 785 b 292 986 493 903 410 986 l 257 986 b 56 785 139 986 56 903 l 56 722 b 168 500 56 626 96 578 l 296 361 b 347 264 332 321 347 303 z "},"t":{"ha":514,"x_min":0,"x_max":0,"o":"m 21 972 l 21 819 l 181 819 l 181 0 l 333 0 l 333 819 l 493 819 l 493 972 z "},"u":{"ha":556,"x_min":0,"x_max":0,"o":"m 500 972 l 347 972 l 347 188 b 299 139 347 157 328 139 l 257 139 b 208 188 228 139 208 157 l 208 972 l 56 972 l 56 188 b 257 -14 56 69 139 -14 l 299 -14 b 500 188 417 -14 500 69 z "},"v":{"ha":514,"x_min":0,"x_max":0,"o":"m 146 0 l 368 0 l 493 972 l 340 972 l 257 243 l 174 972 l 21 972 z "},"w":{"ha":757,"x_min":0,"x_max":0,"o":"m 518 361 l 424 972 l 333 972 l 239 361 l 174 972 l 21 972 l 139 0 l 319 0 l 378 424 l 438 0 l 618 0 l 736 972 l 583 972 z "},"x":{"ha":542,"x_min":0,"x_max":0,"o":"m 174 493 l 28 0 l 188 0 l 271 315 l 354 0 l 514 0 l 375 493 l 507 972 l 347 972 l 271 669 l 194 972 l 35 972 z "},"y":{"ha":500,"x_min":0,"x_max":0,"o":"m 326 333 l 479 972 l 326 972 l 250 551 l 174 972 l 21 972 l 174 333 l 174 0 l 326 0 z "},"z":{"ha":418,"x_min":0,"x_max":0,"o":"m 200 153 l 397 917 l 397 972 l 28 972 l 28 819 l 218 819 l 21 56 l 21 0 l 397 0 l 397 153 z "},"à":{"ha":528,"x_min":0,"x_max":0,"o":"m 325 1014 l 267 1140 l 103 1140 l 217 1014 z m 21 0 l 174 0 l 193 167 l 333 167 l 354 0 l 507 0 l 375 972 l 153 972 z m 264 743 l 315 319 l 213 319 z "},"á":{"ha":528,"x_min":0,"x_max":0,"o":"m 313 1014 l 426 1140 l 263 1140 l 204 1014 z m 21 0 l 174 0 l 193 167 l 333 167 l 354 0 l 507 0 l 375 972 l 153 972 z m 264 743 l 315 319 l 213 319 z "},"â":{"ha":528,"x_min":0,"x_max":0,"o":"m 210 1014 l 264 1065 l 319 1014 l 428 1014 l 336 1140 l 193 1140 l 101 1014 z m 21 0 l 174 0 l 193 167 l 333 167 l 354 0 l 507 0 l 375 972 l 153 972 z m 264 743 l 315 319 l 213 319 z "},"ã":{"ha":528,"x_min":0,"x_max":0,"o":"m 118 1021 b 211 1038 118 1021 167 1044 l 318 1021 b 411 1035 368 1013 411 1035 l 411 1133 b 318 1117 411 1133 364 1110 l 211 1133 b 118 1119 161 1142 118 1119 z m 21 0 l 174 0 l 193 167 l 333 167 l 354 0 l 507 0 l 375 972 l 153 972 z m 264 743 l 315 319 l 213 319 z "},"ä":{"ha":528,"x_min":0,"x_max":0,"o":"m 226 1125 l 74 1125 l 74 1014 l 226 1014 z m 454 1125 l 301 1125 l 301 1014 l 454 1014 z m 21 0 l 174 0 l 193 167 l 333 167 l 354 0 l 507 0 l 375 972 l 153 972 z m 264 743 l 315 319 l 213 319 z "},"ā":{"ha":528,"x_min":0,"x_max":0,"o":"m 110 1029 l 419 1029 l 419 1115 l 110 1115 z m 21 0 l 174 0 l 193 167 l 333 167 l 354 0 l 507 0 l 375 972 l 153 972 z m 264 743 l 315 319 l 213 319 z "},"ă":{"ha":528,"x_min":0,"x_max":0,"o":"m 294 1014 b 392 1106 360 1014 392 1054 l 392 1140 l 294 1140 l 294 1099 l 233 1099 l 233 1140 l 136 1140 l 136 1106 b 233 1014 136 1054 168 1014 z m 21 0 l 174 0 l 193 167 l 333 167 l 354 0 l 507 0 l 375 972 l 153 972 z m 264 743 l 315 319 l 213 319 z "},"å":{"ha":528,"x_min":0,"x_max":0,"o":"m 193 167 l 333 167 l 354 0 l 507 0 l 375 972 l 351 972 b 374 1039 365 990 374 1014 b 264 1149 374 1100 325 1149 b 154 1039 203 1149 154 1100 b 176 972 154 1014 163 990 l 153 972 l 21 0 l 174 0 z m 264 1079 b 304 1039 286 1079 304 1061 b 264 999 304 1017 286 999 b 224 1039 242 999 224 1017 b 264 1079 224 1061 242 1079 z m 264 743 l 315 319 l 213 319 z "},"ǻ":{"ha":528,"x_min":0,"x_max":0,"o":"m 314 1169 l 428 1296 l 264 1296 l 206 1169 z m 193 167 l 333 167 l 354 0 l 507 0 l 375 972 l 351 972 b 374 1039 365 990 374 1014 b 264 1149 374 1100 325 1149 b 154 1039 203 1149 154 1100 b 176 972 154 1014 163 990 l 153 972 l 21 0 l 174 0 z m 264 1079 b 304 1039 286 1079 304 1061 b 264 999 304 1017 286 999 b 224 1039 242 999 224 1017 b 264 1079 224 1061 242 1079 z m 264 743 l 315 319 l 213 319 z "},"ą":{"ha":528,"x_min":0,"x_max":0,"o":"m 306 -62 b 385 -125 306 -99 335 -125 l 489 -125 l 489 -39 l 438 -39 l 438 0 l 507 0 l 375 972 l 153 972 l 21 0 l 174 0 l 193 167 l 333 167 l 354 0 l 374 0 b 306 -62 339 0 306 -14 z m 264 743 l 315 319 l 213 319 z "},"æ":{"ha":768,"x_min":0,"x_max":0,"o":"m 153 972 l 21 0 l 174 0 l 193 167 l 351 167 l 351 0 l 733 0 l 733 153 l 504 153 l 504 417 l 706 417 l 706 569 l 504 569 l 504 819 l 733 819 l 733 972 z m 274 819 l 351 819 l 351 319 l 213 319 z "},"ǽ":{"ha":768,"x_min":0,"x_max":0,"o":"m 474 1014 l 588 1140 l 424 1140 l 365 1014 z m 153 972 l 21 0 l 174 0 l 193 167 l 351 167 l 351 0 l 733 0 l 733 153 l 504 153 l 504 417 l 706 417 l 706 569 l 504 569 l 504 819 l 733 819 l 733 972 z m 274 819 l 351 819 l 351 319 l 213 319 z "},"ć":{"ha":556,"x_min":0,"x_max":0,"o":"m 326 1014 l 440 1140 l 276 1140 l 218 1014 z m 347 389 l 347 188 b 299 139 347 157 328 139 l 257 139 b 208 188 228 139 208 157 l 208 785 b 257 833 208 815 228 833 l 299 833 b 347 785 328 833 347 815 l 347 597 l 500 597 l 500 785 b 299 986 500 903 417 986 l 257 986 b 56 785 139 986 56 903 l 56 188 b 257 -14 56 69 139 -14 l 299 -14 b 500 188 417 -14 500 69 l 500 389 z "},"ĉ":{"ha":556,"x_min":0,"x_max":0,"o":"m 224 1014 l 278 1065 l 333 1014 l 442 1014 l 350 1140 l 207 1140 l 115 1014 z m 347 389 l 347 188 b 299 139 347 157 328 139 l 257 139 b 208 188 228 139 208 157 l 208 785 b 257 833 208 815 228 833 l 299 833 b 347 785 328 833 347 815 l 347 597 l 500 597 l 500 785 b 299 986 500 903 417 986 l 257 986 b 56 785 139 986 56 903 l 56 188 b 257 -14 56 69 139 -14 l 299 -14 b 500 188 417 -14 500 69 l 500 389 z "},"č":{"ha":556,"x_min":0,"x_max":0,"o":"m 115 1140 l 207 1014 l 350 1014 l 442 1140 l 333 1140 l 278 1089 l 224 1140 z m 347 389 l 347 188 b 299 139 347 157 328 139 l 257 139 b 208 188 228 139 208 157 l 208 785 b 257 833 208 815 228 833 l 299 833 b 347 785 328 833 347 815 l 347 597 l 500 597 l 500 785 b 299 986 500 903 417 986 l 257 986 b 56 785 139 986 56 903 l 56 188 b 257 -14 56 69 139 -14 l 299 -14 b 500 188 417 -14 500 69 l 500 389 z "},"ċ":{"ha":556,"x_min":0,"x_max":0,"o":"m 218 1018 l 338 1018 l 338 1136 l 218 1136 z m 347 389 l 347 188 b 299 139 347 157 328 139 l 257 139 b 208 188 228 139 208 157 l 208 785 b 257 833 208 815 228 833 l 299 833 b 347 785 328 833 347 815 l 347 597 l 500 597 l 500 785 b 299 986 500 903 417 986 l 257 986 b 56 785 139 986 56 903 l 56 188 b 257 -14 56 69 139 -14 l 299 -14 b 500 188 417 -14 500 69 l 500 389 z "},"ç":{"ha":556,"x_min":0,"x_max":0,"o":"m 369 -62 b 343 -10 369 -35 358 -18 b 500 188 438 8 500 85 l 500 389 l 347 389 l 347 188 b 299 139 347 157 328 139 l 257 139 b 208 188 228 139 208 157 l 208 785 b 257 833 208 815 228 833 l 299 833 b 347 785 328 833 347 815 l 347 597 l 500 597 l 500 785 b 299 986 500 903 417 986 l 257 986 b 56 785 139 986 56 903 l 56 188 b 238 -12 56 76 129 -4 l 238 -39 l 186 -39 l 186 -125 l 290 -125 b 369 -62 340 -125 369 -99 z "},"ð":{"ha":556,"x_min":0,"x_max":0,"o":"m 500 201 l 500 771 b 299 972 500 896 417 972 l 56 972 l 56 569 l 7 569 l 7 417 l 56 417 l 56 0 l 299 0 b 500 201 417 0 500 83 z m 208 153 l 208 417 l 299 417 l 299 569 l 208 569 l 208 819 l 299 819 b 347 771 328 819 347 801 l 347 201 b 299 153 347 171 328 153 z "},"ď":{"ha":556,"x_min":0,"x_max":0,"o":"m 115 1140 l 207 1014 l 350 1014 l 442 1140 l 333 1140 l 278 1089 l 224 1140 z m 500 771 b 299 972 500 896 417 972 l 56 972 l 56 0 l 299 0 b 500 201 417 0 500 83 z m 347 201 b 299 153 347 171 328 153 l 208 153 l 208 819 l 299 819 b 347 771 328 819 347 801 z "},"đ":{"ha":556,"x_min":0,"x_max":0,"o":"m 500 201 l 500 771 b 299 972 500 896 417 972 l 56 972 l 56 569 l 7 569 l 7 417 l 56 417 l 56 0 l 299 0 b 500 201 417 0 500 83 z m 208 153 l 208 417 l 299 417 l 299 569 l 208 569 l 208 819 l 299 819 b 347 771 328 819 347 801 l 347 201 b 299 153 347 171 328 153 z "},"è":{"ha":472,"x_min":0,"x_max":0,"o":"m 313 1014 l 254 1140 l 90 1140 l 204 1014 z m 56 972 l 56 0 l 438 0 l 438 153 l 208 153 l 208 417 l 410 417 l 410 569 l 208 569 l 208 819 l 438 819 l 438 972 z "},"é":{"ha":472,"x_min":0,"x_max":0,"o":"m 300 1014 l 414 1140 l 250 1140 l 192 1014 z m 56 972 l 56 0 l 438 0 l 438 153 l 208 153 l 208 417 l 410 417 l 410 569 l 208 569 l 208 819 l 438 819 l 438 972 z "},"ê":{"ha":472,"x_min":0,"x_max":0,"o":"m 197 1014 l 251 1065 l 307 1014 l 415 1014 l 324 1140 l 181 1140 l 89 1014 z m 56 972 l 56 0 l 438 0 l 438 153 l 208 153 l 208 417 l 410 417 l 410 569 l 208 569 l 208 819 l 438 819 l 438 972 z "},"ě":{"ha":472,"x_min":0,"x_max":0,"o":"m 89 1140 l 181 1014 l 324 1014 l 415 1140 l 307 1140 l 251 1089 l 197 1140 z m 56 972 l 56 0 l 438 0 l 438 153 l 208 153 l 208 417 l 410 417 l 410 569 l 208 569 l 208 819 l 438 819 l 438 972 z "},"ë":{"ha":472,"x_min":0,"x_max":0,"o":"m 214 1125 l 61 1125 l 61 1014 l 214 1014 z m 442 1125 l 289 1125 l 289 1014 l 442 1014 z m 56 972 l 56 0 l 438 0 l 438 153 l 208 153 l 208 417 l 410 417 l 410 569 l 208 569 l 208 819 l 438 819 l 438 972 z "},"ē":{"ha":472,"x_min":0,"x_max":0,"o":"m 97 1029 l 407 1029 l 407 1115 l 97 1115 z m 56 972 l 56 0 l 438 0 l 438 153 l 208 153 l 208 417 l 410 417 l 410 569 l 208 569 l 208 819 l 438 819 l 438 972 z "},"ĕ":{"ha":472,"x_min":0,"x_max":0,"o":"m 282 1014 b 379 1106 347 1014 379 1054 l 379 1140 l 282 1140 l 282 1099 l 221 1099 l 221 1140 l 124 1140 l 124 1106 b 221 1014 124 1054 156 1014 z m 56 972 l 56 0 l 438 0 l 438 153 l 208 153 l 208 417 l 410 417 l 410 569 l 208 569 l 208 819 l 438 819 l 438 972 z "},"ė":{"ha":472,"x_min":0,"x_max":0,"o":"m 192 1018 l 311 1018 l 311 1136 l 192 1136 z m 56 972 l 56 0 l 438 0 l 438 153 l 208 153 l 208 417 l 410 417 l 410 569 l 208 569 l 208 819 l 438 819 l 438 972 z "},"ę":{"ha":472,"x_min":0,"x_max":0,"o":"m 253 -62 b 332 -125 253 -99 282 -125 l 436 -125 l 436 -39 l 385 -39 l 385 0 l 438 0 l 438 153 l 208 153 l 208 417 l 410 417 l 410 569 l 208 569 l 208 819 l 438 819 l 438 972 l 56 972 l 56 0 l 321 0 b 253 -62 286 0 253 -14 z "},"ĝ":{"ha":556,"x_min":0,"x_max":0,"o":"m 224 1014 l 278 1065 l 333 1014 l 442 1014 l 350 1140 l 207 1140 l 115 1014 z m 278 500 l 278 347 l 347 347 l 347 188 b 299 139 347 157 328 139 l 257 139 b 208 188 228 139 208 157 l 208 785 b 257 833 208 815 228 833 l 299 833 b 347 785 328 833 347 815 l 347 653 l 500 653 l 500 785 b 299 986 500 903 417 986 l 257 986 b 56 785 139 986 56 903 l 56 188 b 257 -14 56 69 139 -14 l 299 -14 b 500 188 417 -14 500 69 l 500 500 z "},"ğ":{"ha":556,"x_min":0,"x_max":0,"o":"m 308 1014 b 406 1106 374 1014 406 1054 l 406 1140 l 308 1140 l 308 1099 l 247 1099 l 247 1140 l 150 1140 l 150 1106 b 247 1014 150 1054 182 1014 z m 278 500 l 278 347 l 347 347 l 347 188 b 299 139 347 157 328 139 l 257 139 b 208 188 228 139 208 157 l 208 785 b 257 833 208 815 228 833 l 299 833 b 347 785 328 833 347 815 l 347 653 l 500 653 l 500 785 b 299 986 500 903 417 986 l 257 986 b 56 785 139 986 56 903 l 56 188 b 257 -14 56 69 139 -14 l 299 -14 b 500 188 417 -14 500 69 l 500 500 z "},"ġ":{"ha":556,"x_min":0,"x_max":0,"o":"m 218 1018 l 338 1018 l 338 1136 l 218 1136 z m 278 500 l 278 347 l 347 347 l 347 188 b 299 139 347 157 328 139 l 257 139 b 208 188 228 139 208 157 l 208 785 b 257 833 208 815 228 833 l 299 833 b 347 785 328 833 347 815 l 347 653 l 500 653 l 500 785 b 299 986 500 903 417 986 l 257 986 b 56 785 139 986 56 903 l 56 188 b 257 -14 56 69 139 -14 l 299 -14 b 500 188 417 -14 500 69 l 500 500 z "},"ģ":{"ha":556,"x_min":0,"x_max":0,"o":"m 278 500 l 278 347 l 347 347 l 347 188 b 299 139 347 157 328 139 l 257 139 b 208 188 228 139 208 157 l 208 785 b 257 833 208 815 228 833 l 299 833 b 347 785 328 833 347 815 l 347 653 l 500 653 l 500 785 b 299 986 500 903 417 986 l 257 986 b 56 785 139 986 56 903 l 56 188 b 257 -14 56 69 139 -14 l 299 -14 b 500 188 417 -14 500 69 l 500 500 z m 328 -129 l 328 -32 l 229 -32 l 229 -137 l 264 -137 l 260 -210 l 304 -210 z "},"ĥ":{"ha":556,"x_min":0,"x_max":0,"o":"m 224 1014 l 278 1065 l 333 1014 l 442 1014 l 350 1140 l 207 1140 l 115 1014 z m 500 972 l 347 972 l 347 569 l 208 569 l 208 972 l 56 972 l 56 0 l 208 0 l 208 417 l 347 417 l 347 0 l 500 0 z "},"ħ":{"ha":556,"x_min":0,"x_max":0,"o":"m 208 417 l 347 417 l 347 0 l 500 0 l 500 664 l 549 664 l 549 817 l 500 817 l 500 972 l 347 972 l 347 817 l 208 817 l 208 972 l 56 972 l 56 817 l 7 817 l 7 664 l 56 664 l 56 0 l 208 0 z m 208 569 l 208 664 l 347 664 l 347 569 z "},"ì":{"ha":264,"x_min":0,"x_max":0,"o":"m 193 1014 l 135 1140 l -29 1140 l 85 1014 z m 208 972 l 56 972 l 56 0 l 208 0 z "},"í":{"ha":264,"x_min":0,"x_max":0,"o":"m 181 1014 l 294 1140 l 131 1140 l 72 1014 z m 208 972 l 56 972 l 56 0 l 208 0 z "},"î":{"ha":264,"x_min":0,"x_max":0,"o":"m 78 1014 l 132 1065 l 188 1014 l 296 1014 l 204 1140 l 61 1140 l -31 1014 z m 208 972 l 56 972 l 56 0 l 208 0 z "},"ĩ":{"ha":264,"x_min":0,"x_max":0,"o":"m -14 1021 b 79 1038 -14 1021 35 1044 l 186 1021 b 279 1035 236 1013 279 1035 l 279 1133 b 186 1117 279 1133 232 1110 l 79 1133 b -14 1119 29 1142 -14 1119 z m 208 972 l 56 972 l 56 0 l 208 0 z "},"ï":{"ha":264,"x_min":0,"x_max":0,"o":"m 94 1125 l -58 1125 l -58 1014 l 94 1014 z m 322 1125 l 169 1125 l 169 1014 l 322 1014 z m 208 972 l 56 972 l 56 0 l 208 0 z "},"ī":{"ha":264,"x_min":0,"x_max":0,"o":"m -22 1029 l 288 1029 l 288 1115 l -22 1115 z m 208 972 l 56 972 l 56 0 l 208 0 z "},"ĭ":{"ha":264,"x_min":0,"x_max":0,"o":"m 163 1014 b 260 1106 228 1014 260 1054 l 260 1140 l 163 1140 l 163 1099 l 101 1099 l 101 1140 l 4 1140 l 4 1106 b 101 1014 4 1054 36 1014 z m 208 972 l 56 972 l 56 0 l 208 0 z "},"į":{"ha":264,"x_min":0,"x_max":0,"o":"m 19 -62 b 99 -125 19 -99 49 -125 l 203 -125 l 203 -39 l 151 -39 l 151 0 l 208 0 l 208 972 l 56 972 l 56 0 l 88 0 b 19 -62 53 0 19 -14 z "},"ĳ":{"ha":819,"x_min":0,"x_max":0,"o":"m 208 972 l 56 972 l 56 0 l 208 0 z m 611 972 l 611 188 b 563 139 611 157 592 139 l 521 139 b 472 188 492 139 472 157 l 472 389 l 319 389 l 319 188 b 521 -14 319 69 403 -14 l 563 -14 b 764 188 681 -14 764 69 l 764 972 z "},"ĵ":{"ha":556,"x_min":0,"x_max":0,"o":"m 376 1014 l 431 1065 l 486 1014 l 594 1014 l 503 1140 l 360 1140 l 268 1014 z m 347 972 l 347 188 b 299 139 347 157 328 139 l 257 139 b 208 188 228 139 208 157 l 208 389 l 56 389 l 56 188 b 257 -14 56 69 139 -14 l 299 -14 b 500 188 417 -14 500 69 l 500 972 z "},"ķ":{"ha":560,"x_min":0,"x_max":0,"o":"m 372 0 l 539 0 l 338 569 l 517 972 l 350 972 l 208 610 l 208 972 l 56 972 l 56 0 l 208 0 l 208 278 l 250 386 z m 343 -129 l 343 -32 l 244 -32 l 244 -137 l 279 -137 l 275 -210 l 319 -210 z "},"ĺ":{"ha":424,"x_min":0,"x_max":0,"o":"m 182 1014 l 296 1140 l 132 1140 l 74 1014 z m 208 153 l 208 972 l 56 972 l 56 0 l 403 0 l 403 153 z "},"ľ":{"ha":424,"x_min":0,"x_max":0,"o":"m 208 153 l 208 972 l 56 972 l 56 0 l 403 0 l 403 153 z m 360 776 l 418 972 l 282 972 l 251 776 z "},"ļ":{"ha":424,"x_min":0,"x_max":0,"o":"m 208 153 l 208 972 l 56 972 l 56 0 l 403 0 l 403 153 z m 275 -129 l 275 -32 l 176 -32 l 176 -137 l 211 -137 l 207 -210 l 251 -210 z "},"ł":{"ha":424,"x_min":0,"x_max":0,"o":"m 403 153 l 208 153 l 208 432 l 319 465 l 319 618 l 208 585 l 208 972 l 56 972 l 56 538 l 0 521 l 0 368 l 56 385 l 56 0 l 403 0 z "},"ŀ":{"ha":424,"x_min":0,"x_max":0,"o":"m 208 153 l 208 972 l 56 972 l 56 0 l 403 0 l 403 153 z m 286 481 l 406 481 l 406 599 l 286 599 z "},"ń":{"ha":542,"x_min":0,"x_max":0,"o":"m 319 1014 l 433 1140 l 269 1140 l 211 1014 z m 486 0 l 486 972 l 333 972 l 333 518 l 146 972 l 56 972 l 56 0 l 208 0 l 208 461 l 396 0 z "},"ň":{"ha":542,"x_min":0,"x_max":0,"o":"m 108 1140 l 200 1014 l 343 1014 l 435 1140 l 326 1140 l 271 1089 l 217 1140 z m 486 0 l 486 972 l 333 972 l 333 518 l 146 972 l 56 972 l 56 0 l 208 0 l 208 461 l 396 0 z "},"ñ":{"ha":542,"x_min":0,"x_max":0,"o":"m 125 1021 b 218 1038 125 1021 174 1044 l 325 1021 b 418 1035 375 1013 418 1035 l 418 1133 b 325 1117 418 1133 371 1110 l 218 1133 b 125 1119 168 1142 125 1119 z m 486 0 l 486 972 l 333 972 l 333 518 l 146 972 l 56 972 l 56 0 l 208 0 l 208 461 l 396 0 z "},"ņ":{"ha":542,"x_min":0,"x_max":0,"o":"m 486 0 l 486 972 l 333 972 l 333 518 l 146 972 l 56 972 l 56 0 l 208 0 l 208 461 l 396 0 z m 335 -129 l 335 -32 l 236 -32 l 236 -137 l 271 -137 l 267 -210 l 311 -210 z "},"ŋ":{"ha":542,"x_min":0,"x_max":0,"o":"m 333 972 l 333 518 l 146 972 l 56 972 l 56 0 l 208 0 l 208 461 l 333 154 l 333 -7 b 285 -56 333 -37 314 -56 l 257 -56 l 257 -208 l 285 -208 b 486 -7 403 -208 486 -125 l 486 972 z "},"ò":{"ha":556,"x_min":0,"x_max":0,"o":"m 339 1014 l 281 1140 l 117 1140 l 231 1014 z m 299 -14 b 500 188 417 -14 500 69 l 500 785 b 299 986 500 903 417 986 l 257 986 b 56 785 139 986 56 903 l 56 188 b 257 -14 56 69 139 -14 z m 257 139 b 208 188 228 139 208 157 l 208 785 b 257 833 208 815 228 833 l 299 833 b 347 785 328 833 347 815 l 347 188 b 299 139 347 157 328 139 z "},"ó":{"ha":556,"x_min":0,"x_max":0,"o":"m 326 1014 l 440 1140 l 276 1140 l 218 1014 z m 299 -14 b 500 188 417 -14 500 69 l 500 785 b 299 986 500 903 417 986 l 257 986 b 56 785 139 986 56 903 l 56 188 b 257 -14 56 69 139 -14 z m 257 139 b 208 188 228 139 208 157 l 208 785 b 257 833 208 815 228 833 l 299 833 b 347 785 328 833 347 815 l 347 188 b 299 139 347 157 328 139 z "},"ô":{"ha":556,"x_min":0,"x_max":0,"o":"m 224 1014 l 278 1065 l 333 1014 l 442 1014 l 350 1140 l 207 1140 l 115 1014 z m 299 -14 b 500 188 417 -14 500 69 l 500 785 b 299 986 500 903 417 986 l 257 986 b 56 785 139 986 56 903 l 56 188 b 257 -14 56 69 139 -14 z m 257 139 b 208 188 228 139 208 157 l 208 785 b 257 833 208 815 228 833 l 299 833 b 347 785 328 833 347 815 l 347 188 b 299 139 347 157 328 139 z "},"õ":{"ha":556,"x_min":0,"x_max":0,"o":"m 132 1021 b 225 1038 132 1021 181 1044 l 332 1021 b 425 1035 382 1013 425 1035 l 425 1133 b 332 1117 425 1133 378 1110 l 225 1133 b 132 1119 175 1142 132 1119 z m 299 -14 b 500 188 417 -14 500 69 l 500 785 b 299 986 500 903 417 986 l 257 986 b 56 785 139 986 56 903 l 56 188 b 257 -14 56 69 139 -14 z m 257 139 b 208 188 228 139 208 157 l 208 785 b 257 833 208 815 228 833 l 299 833 b 347 785 328 833 347 815 l 347 188 b 299 139 347 157 328 139 z "},"ö":{"ha":556,"x_min":0,"x_max":0,"o":"m 240 1125 l 88 1125 l 88 1014 l 240 1014 z m 468 1125 l 315 1125 l 315 1014 l 468 1014 z m 299 -14 b 500 188 417 -14 500 69 l 500 785 b 299 986 500 903 417 986 l 257 986 b 56 785 139 986 56 903 l 56 188 b 257 -14 56 69 139 -14 z m 257 139 b 208 188 228 139 208 157 l 208 785 b 257 833 208 815 228 833 l 299 833 b 347 785 328 833 347 815 l 347 188 b 299 139 347 157 328 139 z "},"ō":{"ha":556,"x_min":0,"x_max":0,"o":"m 124 1029 l 433 1029 l 433 1115 l 124 1115 z m 299 -14 b 500 188 417 -14 500 69 l 500 785 b 299 986 500 903 417 986 l 257 986 b 56 785 139 986 56 903 l 56 188 b 257 -14 56 69 139 -14 z m 257 139 b 208 188 228 139 208 157 l 208 785 b 257 833 208 815 228 833 l 299 833 b 347 785 328 833 347 815 l 347 188 b 299 139 347 157 328 139 z "},"ŏ":{"ha":556,"x_min":0,"x_max":0,"o":"m 308 1014 b 406 1106 374 1014 406 1054 l 406 1140 l 308 1140 l 308 1099 l 247 1099 l 247 1140 l 150 1140 l 150 1106 b 247 1014 150 1054 182 1014 z m 299 -14 b 500 188 417 -14 500 69 l 500 785 b 299 986 500 903 417 986 l 257 986 b 56 785 139 986 56 903 l 56 188 b 257 -14 56 69 139 -14 z m 257 139 b 208 188 228 139 208 157 l 208 785 b 257 833 208 815 228 833 l 299 833 b 347 785 328 833 347 815 l 347 188 b 299 139 347 157 328 139 z "},"ő":{"ha":556,"x_min":0,"x_max":0,"o":"m 147 1140 l 126 1014 l 185 1014 l 265 1140 z m 313 1140 l 292 1014 l 350 1014 l 431 1140 z m 299 -14 b 500 188 417 -14 500 69 l 500 785 b 299 986 500 903 417 986 l 257 986 b 56 785 139 986 56 903 l 56 188 b 257 -14 56 69 139 -14 z m 257 139 b 208 188 228 139 208 157 l 208 785 b 257 833 208 815 228 833 l 299 833 b 347 785 328 833 347 815 l 347 188 b 299 139 347 157 328 139 z "},"ø":{"ha":556,"x_min":0,"x_max":0,"o":"m 299 -14 b 500 188 417 -14 500 69 l 500 785 b 461 908 500 832 486 875 l 496 1042 l 371 1042 l 353 979 b 299 986 336 983 318 986 l 257 986 b 56 785 139 986 56 903 l 56 188 b 94 63 56 139 69 96 l 61 -69 l 186 -69 l 203 -7 b 257 -14 219 -11 238 -14 z m 299 833 b 310 832 303 833 306 833 l 208 438 l 208 785 b 257 833 208 815 228 833 z m 247 139 l 347 529 l 347 188 b 299 139 347 157 328 139 z "},"ǿ":{"ha":556,"x_min":0,"x_max":0,"o":"m 313 1014 l 426 1140 l 263 1140 l 204 1014 z m 299 -14 b 500 188 417 -14 500 69 l 500 785 b 461 908 500 832 486 875 l 496 1042 l 371 1042 l 353 979 b 299 986 336 983 318 986 l 257 986 b 56 785 139 986 56 903 l 56 188 b 94 63 56 139 69 96 l 61 -69 l 186 -69 l 203 -7 b 257 -14 219 -11 238 -14 z m 299 833 b 310 832 303 833 306 833 l 208 438 l 208 785 b 257 833 208 815 228 833 z m 247 139 l 347 529 l 347 188 b 299 139 347 157 328 139 z "},"œ":{"ha":764,"x_min":0,"x_max":0,"o":"m 257 972 b 56 771 139 972 56 889 l 56 201 b 257 0 56 83 139 0 l 729 0 l 729 153 l 500 153 l 500 417 l 701 417 l 701 569 l 500 569 l 500 819 l 729 819 l 729 972 z m 347 153 l 257 153 b 208 201 228 153 208 171 l 208 771 b 257 819 208 801 228 819 l 347 819 z "},"ŕ":{"ha":535,"x_min":0,"x_max":0,"o":"m 315 1014 l 429 1140 l 265 1140 l 207 1014 z m 406 403 b 500 576 464 436 500 499 l 500 771 b 299 972 500 896 417 972 l 56 972 l 56 0 l 208 0 l 208 375 l 272 375 l 333 0 l 514 0 z m 208 819 l 299 819 b 347 771 328 819 347 801 l 347 576 b 299 528 347 546 328 528 l 208 528 z "},"ř":{"ha":535,"x_min":0,"x_max":0,"o":"m 104 1140 l 196 1014 l 339 1014 l 431 1140 l 322 1140 l 267 1089 l 213 1140 z m 406 403 b 500 576 464 436 500 499 l 500 771 b 299 972 500 896 417 972 l 56 972 l 56 0 l 208 0 l 208 375 l 272 375 l 333 0 l 514 0 z m 208 819 l 299 819 b 347 771 328 819 347 801 l 347 576 b 299 528 347 546 328 528 l 208 528 z "},"ŗ":{"ha":535,"x_min":0,"x_max":0,"o":"m 406 403 b 500 576 464 436 500 499 l 500 771 b 299 972 500 896 417 972 l 56 972 l 56 0 l 208 0 l 208 375 l 272 375 l 333 0 l 514 0 z m 208 819 l 299 819 b 347 771 328 819 347 801 l 347 576 b 299 528 347 546 328 528 l 208 528 z m 322 -129 l 322 -32 l 224 -32 l 224 -137 l 258 -137 l 254 -210 l 299 -210 z "},"ś":{"ha":556,"x_min":0,"x_max":0,"o":"m 340 1014 l 454 1140 l 290 1140 l 232 1014 z m 347 188 b 299 139 347 157 328 139 l 257 139 b 208 188 228 139 208 157 l 208 333 l 56 333 l 56 188 b 257 -14 56 69 139 -14 l 299 -14 b 500 188 417 -14 500 69 l 500 264 b 388 486 500 360 460 408 l 261 624 b 208 722 225 664 208 683 l 208 785 b 257 833 208 815 228 833 l 292 833 b 340 785 321 833 340 815 l 340 653 l 493 653 l 493 785 b 292 986 493 903 410 986 l 257 986 b 56 785 139 986 56 903 l 56 722 b 168 500 56 626 96 578 l 296 361 b 347 264 332 321 347 303 z "},"ŝ":{"ha":556,"x_min":0,"x_max":0,"o":"m 238 1014 l 292 1065 l 347 1014 l 456 1014 l 364 1140 l 221 1140 l 129 1014 z m 347 188 b 299 139 347 157 328 139 l 257 139 b 208 188 228 139 208 157 l 208 333 l 56 333 l 56 188 b 257 -14 56 69 139 -14 l 299 -14 b 500 188 417 -14 500 69 l 500 264 b 388 486 500 360 460 408 l 261 624 b 208 722 225 664 208 683 l 208 785 b 257 833 208 815 228 833 l 292 833 b 340 785 321 833 340 815 l 340 653 l 493 653 l 493 785 b 292 986 493 903 410 986 l 257 986 b 56 785 139 986 56 903 l 56 722 b 168 500 56 626 96 578 l 296 361 b 347 264 332 321 347 303 z "},"š":{"ha":556,"x_min":0,"x_max":0,"o":"m 129 1140 l 221 1014 l 364 1014 l 456 1140 l 347 1140 l 292 1089 l 238 1140 z m 347 188 b 299 139 347 157 328 139 l 257 139 b 208 188 228 139 208 157 l 208 333 l 56 333 l 56 188 b 257 -14 56 69 139 -14 l 299 -14 b 500 188 417 -14 500 69 l 500 264 b 388 486 500 360 460 408 l 261 624 b 208 722 225 664 208 683 l 208 785 b 257 833 208 815 228 833 l 292 833 b 340 785 321 833 340 815 l 340 653 l 493 653 l 493 785 b 292 986 493 903 410 986 l 257 986 b 56 785 139 986 56 903 l 56 722 b 168 500 56 626 96 578 l 296 361 b 347 264 332 321 347 303 z "},"ş":{"ha":556,"x_min":0,"x_max":0,"o":"m 369 -62 b 343 -10 369 -35 358 -18 b 500 188 438 8 500 85 l 500 264 b 388 486 500 360 460 408 l 261 624 b 208 722 225 664 208 683 l 208 785 b 257 833 208 815 228 833 l 292 833 b 340 785 321 833 340 815 l 340 653 l 493 653 l 493 785 b 292 986 493 903 410 986 l 257 986 b 56 785 139 986 56 903 l 56 722 b 168 500 56 626 96 578 l 296 361 b 347 264 332 321 347 303 l 347 188 b 299 139 347 157 328 139 l 257 139 b 208 188 228 139 208 157 l 208 333 l 56 333 l 56 188 b 238 -12 56 76 129 -4 l 238 -39 l 186 -39 l 186 -125 l 290 -125 b 369 -62 340 -125 369 -99 z "},"ș":{"ha":556,"x_min":0,"x_max":0,"o":"m 347 188 b 299 139 347 157 328 139 l 257 139 b 208 188 228 139 208 157 l 208 333 l 56 333 l 56 188 b 257 -14 56 69 139 -14 l 299 -14 b 500 188 417 -14 500 69 l 500 264 b 388 486 500 360 460 408 l 261 624 b 208 722 225 664 208 683 l 208 785 b 257 833 208 815 228 833 l 292 833 b 340 785 321 833 340 815 l 340 653 l 493 653 l 493 785 b 292 986 493 903 410 986 l 257 986 b 56 785 139 986 56 903 l 56 722 b 168 500 56 626 96 578 l 296 361 b 347 264 332 321 347 303 z m 328 -129 l 328 -32 l 229 -32 l 229 -137 l 264 -137 l 260 -210 l 304 -210 z "},"ť":{"ha":514,"x_min":0,"x_max":0,"o":"m 94 1140 l 186 1014 l 329 1014 l 421 1140 l 313 1140 l 257 1089 l 203 1140 z m 21 972 l 21 819 l 181 819 l 181 0 l 333 0 l 333 819 l 493 819 l 493 972 z "},"ț":{"ha":514,"x_min":0,"x_max":0,"o":"m 21 972 l 21 819 l 181 819 l 181 0 l 333 0 l 333 819 l 493 819 l 493 972 z m 307 -129 l 307 -32 l 208 -32 l 208 -137 l 243 -137 l 239 -210 l 283 -210 z "},"ŧ":{"ha":514,"x_min":0,"x_max":0,"o":"m 424 410 l 424 563 l 333 563 l 333 819 l 493 819 l 493 972 l 21 972 l 21 819 l 181 819 l 181 563 l 90 563 l 90 410 l 181 410 l 181 0 l 333 0 l 333 410 z "},"ţ":{"ha":514,"x_min":0,"x_max":0,"o":"m 165 -39 l 165 -125 l 269 -125 b 349 -62 319 -125 349 -99 b 281 0 349 -14 315 0 l 333 0 l 333 819 l 493 819 l 493 972 l 21 972 l 21 819 l 181 819 l 181 0 l 217 0 l 217 -39 z "},"ù":{"ha":556,"x_min":0,"x_max":0,"o":"m 339 1014 l 281 1140 l 117 1140 l 231 1014 z m 500 972 l 347 972 l 347 188 b 299 139 347 157 328 139 l 257 139 b 208 188 228 139 208 157 l 208 972 l 56 972 l 56 188 b 257 -14 56 69 139 -14 l 299 -14 b 500 188 417 -14 500 69 z "},"ú":{"ha":556,"x_min":0,"x_max":0,"o":"m 326 1014 l 440 1140 l 276 1140 l 218 1014 z m 500 972 l 347 972 l 347 188 b 299 139 347 157 328 139 l 257 139 b 208 188 228 139 208 157 l 208 972 l 56 972 l 56 188 b 257 -14 56 69 139 -14 l 299 -14 b 500 188 417 -14 500 69 z "},"û":{"ha":556,"x_min":0,"x_max":0,"o":"m 224 1014 l 278 1065 l 333 1014 l 442 1014 l 350 1140 l 207 1140 l 115 1014 z m 500 972 l 347 972 l 347 188 b 299 139 347 157 328 139 l 257 139 b 208 188 228 139 208 157 l 208 972 l 56 972 l 56 188 b 257 -14 56 69 139 -14 l 299 -14 b 500 188 417 -14 500 69 z "},"ũ":{"ha":556,"x_min":0,"x_max":0,"o":"m 132 1021 b 225 1038 132 1021 181 1044 l 332 1021 b 425 1035 382 1013 425 1035 l 425 1133 b 332 1117 425 1133 378 1110 l 225 1133 b 132 1119 175 1142 132 1119 z m 500 972 l 347 972 l 347 188 b 299 139 347 157 328 139 l 257 139 b 208 188 228 139 208 157 l 208 972 l 56 972 l 56 188 b 257 -14 56 69 139 -14 l 299 -14 b 500 188 417 -14 500 69 z "},"ü":{"ha":556,"x_min":0,"x_max":0,"o":"m 240 1125 l 88 1125 l 88 1014 l 240 1014 z m 468 1125 l 315 1125 l 315 1014 l 468 1014 z m 500 972 l 347 972 l 347 188 b 299 139 347 157 328 139 l 257 139 b 208 188 228 139 208 157 l 208 972 l 56 972 l 56 188 b 257 -14 56 69 139 -14 l 299 -14 b 500 188 417 -14 500 69 z "},"ū":{"ha":556,"x_min":0,"x_max":0,"o":"m 124 1029 l 433 1029 l 433 1115 l 124 1115 z m 500 972 l 347 972 l 347 188 b 299 139 347 157 328 139 l 257 139 b 208 188 228 139 208 157 l 208 972 l 56 972 l 56 188 b 257 -14 56 69 139 -14 l 299 -14 b 500 188 417 -14 500 69 z "},"ŭ":{"ha":556,"x_min":0,"x_max":0,"o":"m 308 1014 b 406 1106 374 1014 406 1054 l 406 1140 l 308 1140 l 308 1099 l 247 1099 l 247 1140 l 150 1140 l 150 1106 b 247 1014 150 1054 182 1014 z m 500 972 l 347 972 l 347 188 b 299 139 347 157 328 139 l 257 139 b 208 188 228 139 208 157 l 208 972 l 56 972 l 56 188 b 257 -14 56 69 139 -14 l 299 -14 b 500 188 417 -14 500 69 z "},"ů":{"ha":556,"x_min":0,"x_max":0,"o":"m 278 985 b 388 1094 339 985 388 1033 b 278 1204 388 1156 339 1204 b 168 1094 217 1204 168 1156 b 278 985 168 1033 217 985 z m 278 1135 b 318 1094 300 1135 318 1117 b 278 1054 318 1072 300 1054 b 238 1094 256 1054 238 1072 b 278 1135 238 1117 256 1135 z m 500 972 l 347 972 l 347 188 b 299 139 347 157 328 139 l 257 139 b 208 188 228 139 208 157 l 208 972 l 56 972 l 56 188 b 257 -14 56 69 139 -14 l 299 -14 b 500 188 417 -14 500 69 z "},"ű":{"ha":556,"x_min":0,"x_max":0,"o":"m 147 1140 l 126 1014 l 185 1014 l 265 1140 z m 313 1140 l 292 1014 l 350 1014 l 431 1140 z m 500 972 l 347 972 l 347 188 b 299 139 347 157 328 139 l 257 139 b 208 188 228 139 208 157 l 208 972 l 56 972 l 56 188 b 257 -14 56 69 139 -14 l 299 -14 b 500 188 417 -14 500 69 z "},"ų":{"ha":556,"x_min":0,"x_max":0,"o":"m 371 -39 l 319 -39 l 319 -12 b 500 188 426 -4 500 76 l 500 972 l 347 972 l 347 188 b 299 139 347 157 328 139 l 257 139 b 208 188 228 139 208 157 l 208 972 l 56 972 l 56 188 b 214 -10 56 85 119 8 b 188 -62 199 -19 188 -35 b 267 -125 188 -99 217 -125 l 371 -125 z "},"ẁ":{"ha":757,"x_min":0,"x_max":0,"o":"m 439 1014 l 381 1140 l 217 1140 l 331 1014 z m 518 361 l 424 972 l 333 972 l 239 361 l 174 972 l 21 972 l 139 0 l 319 0 l 378 424 l 438 0 l 618 0 l 736 972 l 583 972 z "},"ẃ":{"ha":757,"x_min":0,"x_max":0,"o":"m 426 1014 l 540 1140 l 376 1140 l 318 1014 z m 518 361 l 424 972 l 333 972 l 239 361 l 174 972 l 21 972 l 139 0 l 319 0 l 378 424 l 438 0 l 618 0 l 736 972 l 583 972 z "},"ŵ":{"ha":757,"x_min":0,"x_max":0,"o":"m 324 1014 l 378 1065 l 433 1014 l 542 1014 l 450 1140 l 307 1140 l 215 1014 z m 518 361 l 424 972 l 333 972 l 239 361 l 174 972 l 21 972 l 139 0 l 319 0 l 378 424 l 438 0 l 618 0 l 736 972 l 583 972 z "},"ẅ":{"ha":757,"x_min":0,"x_max":0,"o":"m 340 1125 l 188 1125 l 188 1014 l 340 1014 z m 568 1125 l 415 1125 l 415 1014 l 568 1014 z m 518 361 l 424 972 l 333 972 l 239 361 l 174 972 l 21 972 l 139 0 l 319 0 l 378 424 l 438 0 l 618 0 l 736 972 l 583 972 z "},"ỳ":{"ha":500,"x_min":0,"x_max":0,"o":"m 311 1014 l 253 1140 l 89 1140 l 203 1014 z m 326 333 l 479 972 l 326 972 l 250 551 l 174 972 l 21 972 l 174 333 l 174 0 l 326 0 z "},"ý":{"ha":500,"x_min":0,"x_max":0,"o":"m 299 1014 l 413 1140 l 249 1140 l 190 1014 z m 326 333 l 479 972 l 326 972 l 250 551 l 174 972 l 21 972 l 174 333 l 174 0 l 326 0 z "},"ŷ":{"ha":500,"x_min":0,"x_max":0,"o":"m 196 1014 l 250 1065 l 306 1014 l 414 1014 l 322 1140 l 179 1140 l 88 1014 z m 326 333 l 479 972 l 326 972 l 250 551 l 174 972 l 21 972 l 174 333 l 174 0 l 326 0 z "},"ÿ":{"ha":500,"x_min":0,"x_max":0,"o":"m 213 1125 l 60 1125 l 60 1014 l 213 1014 z m 440 1125 l 288 1125 l 288 1014 l 440 1014 z m 326 333 l 479 972 l 326 972 l 250 551 l 174 972 l 21 972 l 174 333 l 174 0 l 326 0 z "},"ź":{"ha":418,"x_min":0,"x_max":0,"o":"m 257 1014 l 371 1140 l 207 1140 l 149 1014 z m 200 153 l 397 917 l 397 972 l 28 972 l 28 819 l 218 819 l 21 56 l 21 0 l 397 0 l 397 153 z "},"ž":{"ha":418,"x_min":0,"x_max":0,"o":"m 46 1140 l 138 1014 l 281 1014 l 372 1140 l 264 1140 l 208 1089 l 154 1140 z m 200 153 l 397 917 l 397 972 l 28 972 l 28 819 l 218 819 l 21 56 l 21 0 l 397 0 l 397 153 z "},"ż":{"ha":418,"x_min":0,"x_max":0,"o":"m 149 1018 l 268 1018 l 268 1136 l 149 1136 z m 200 153 l 397 917 l 397 972 l 28 972 l 28 819 l 218 819 l 21 56 l 21 0 l 397 0 l 397 153 z "},"þ":{"ha":556,"x_min":0,"x_max":0,"o":"m 208 175 l 299 175 b 500 376 417 175 500 258 l 500 624 b 299 825 500 749 417 825 l 208 825 l 208 972 l 56 972 l 56 0 l 208 0 z m 208 672 l 299 672 b 347 624 328 672 347 654 l 347 376 b 299 328 347 346 328 328 l 208 328 z "},"`":{"ha":694,"x_min":0,"x_max":0,"o":"m 458 1014 l 400 1140 l 236 1140 l 350 1014 z "},"´":{"ha":694,"x_min":0,"x_max":0,"o":"m 344 1014 l 458 1140 l 294 1140 l 236 1014 z "},"ˆ":{"ha":694,"x_min":0,"x_max":0,"o":"m 293 1014 l 347 1065 l 403 1014 l 511 1014 l 419 1140 l 276 1140 l 185 1014 z "},"ˇ":{"ha":694,"x_min":0,"x_max":0,"o":"m 185 1140 l 276 1014 l 419 1014 l 511 1140 l 403 1140 l 347 1089 l 293 1140 z "},"˜":{"ha":694,"x_min":0,"x_max":0,"o":"m 201 1021 b 294 1038 201 1021 250 1044 l 401 1021 b 494 1035 451 1013 494 1035 l 494 1133 b 401 1117 494 1133 447 1110 l 294 1133 b 201 1119 244 1142 201 1119 z "},"¨":{"ha":694,"x_min":0,"x_max":0,"o":"m 310 1125 l 157 1125 l 157 1014 l 310 1014 z m 538 1125 l 385 1125 l 385 1014 l 538 1014 z "},"¯":{"ha":694,"x_min":0,"x_max":0,"o":"m 193 1029 l 503 1029 l 503 1115 l 193 1115 z "},"ˉ":{"ha":694,"x_min":0,"x_max":0,"o":"m 193 1029 l 503 1029 l 503 1115 l 193 1115 z "},"˘":{"ha":694,"x_min":0,"x_max":0,"o":"m 378 1014 b 475 1106 443 1014 475 1054 l 475 1140 l 378 1140 l 378 1099 l 317 1099 l 317 1140 l 219 1140 l 219 1106 b 317 1014 219 1054 251 1014 z "},"˚":{"ha":694,"x_min":0,"x_max":0,"o":"m 347 929 b 457 1039 408 929 457 978 b 347 1149 457 1100 408 1149 b 238 1039 286 1149 238 1100 b 347 929 238 978 286 929 z m 347 1079 b 388 1039 369 1079 388 1061 b 347 999 388 1017 369 999 b 307 1039 325 999 307 1017 b 347 1079 307 1061 325 1079 z "},"˝":{"ha":694,"x_min":0,"x_max":0,"o":"m 217 1140 l 196 1014 l 254 1014 l 335 1140 z m 382 1140 l 361 1014 l 419 1014 l 500 1140 z "},"˙":{"ha":694,"x_min":0,"x_max":0,"o":"m 288 1018 l 407 1018 l 407 1136 l 288 1136 z "},"¸":{"ha":694,"x_min":0,"x_max":0,"o":"m 256 -125 l 360 -125 b 439 -62 410 -125 439 -99 b 371 0 439 -14 406 0 l 307 0 l 307 -39 l 256 -39 z "},"˛":{"ha":694,"x_min":0,"x_max":0,"o":"m 439 -39 l 388 -39 l 388 0 l 324 0 b 256 -62 289 0 256 -14 b 335 -125 256 -99 285 -125 l 439 -125 z "},"":{"ha":696,"x_min":0,"x_max":0,"o":"m 397 -129 l 397 -32 l 299 -32 l 299 -137 l 333 -137 l 329 -210 l 374 -210 z "},",":{"ha":201,"x_min":0,"x_max":0,"o":"m 181 167 l 28 167 l 28 0 l 72 0 l 67 -167 l 108 -167 l 181 -14 z "},";":{"ha":236,"x_min":0,"x_max":0,"o":"m 181 569 l 28 569 l 28 410 l 181 410 z m 181 160 l 28 160 l 28 0 l 72 0 l 69 -167 l 111 -167 l 181 -14 z "},":":{"ha":264,"x_min":0,"x_max":0,"o":"m 208 569 l 56 569 l 56 410 l 208 410 z m 208 160 l 56 160 l 56 0 l 208 0 z "},".":{"ha":264,"x_min":0,"x_max":0,"o":"m 208 167 l 56 167 l 56 0 l 208 0 z "},"…":{"ha":792,"x_min":0,"x_max":0,"o":"m 208 167 l 56 167 l 56 0 l 208 0 z m 472 167 l 319 167 l 319 0 l 472 0 z m 736 167 l 583 167 l 583 0 l 736 0 z "},"-":{"ha":333,"x_min":0,"x_max":0,"o":"m 278 569 l 56 569 l 56 417 l 278 417 z "},"­":{"ha":333,"x_min":0,"x_max":0,"o":"m 278 569 l 56 569 l 56 417 l 278 417 z "},"!":{"ha":264,"x_min":0,"x_max":0,"o":"m 208 788 l 208 972 l 56 972 l 56 788 l 67 288 l 197 288 z m 208 167 l 56 167 l 56 0 l 208 0 z "},"¡":{"ha":264,"x_min":0,"x_max":0,"o":"m 208 972 l 56 972 l 56 806 l 208 806 z m 197 685 l 67 685 l 56 185 l 56 0 l 208 0 l 208 185 z "},"?":{"ha":556,"x_min":0,"x_max":0,"o":"m 358 406 b 500 579 456 421 500 486 l 500 771 b 299 972 500 896 417 972 l 257 972 b 56 771 139 972 56 896 l 56 632 l 208 632 l 208 771 b 257 819 208 801 228 819 l 299 819 b 347 771 328 819 347 801 l 347 603 b 299 551 347 572 328 556 l 178 536 l 178 288 l 331 288 l 331 401 z m 331 167 l 178 167 l 178 0 l 331 0 z "},"¿":{"ha":556,"x_min":0,"x_max":0,"o":"m 225 806 l 378 806 l 378 972 l 225 972 z m 197 567 b 56 393 100 551 56 486 l 56 201 b 257 0 56 76 139 0 l 299 0 b 500 201 417 0 500 76 l 500 340 l 347 340 l 347 201 b 299 153 347 171 328 153 l 257 153 b 208 201 228 153 208 171 l 208 369 b 257 421 208 400 228 417 l 378 436 l 378 685 l 225 685 l 225 571 z "},"‘":{"ha":203,"x_min":0,"x_max":0,"o":"m 25 639 l 178 639 l 178 806 l 133 806 l 139 972 l 97 972 l 25 819 z "},"’":{"ha":203,"x_min":0,"x_max":0,"o":"m 178 972 l 25 972 l 25 806 l 69 806 l 64 639 l 106 639 l 178 792 z "},"“":{"ha":432,"x_min":0,"x_max":0,"o":"m 254 639 l 407 639 l 407 806 l 363 806 l 368 972 l 326 972 l 254 819 z m 25 639 l 178 639 l 178 806 l 133 806 l 139 972 l 97 972 l 25 819 z "},"”":{"ha":432,"x_min":0,"x_max":0,"o":"m 407 972 l 254 972 l 254 806 l 299 806 l 293 639 l 335 639 l 407 792 z m 178 972 l 25 972 l 25 806 l 69 806 l 64 639 l 106 639 l 178 792 z "},"‚":{"ha":203,"x_min":0,"x_max":0,"o":"m 178 167 l 25 167 l 25 0 l 69 0 l 64 -167 l 106 -167 l 178 -14 z "},"„":{"ha":432,"x_min":0,"x_max":0,"o":"m 407 167 l 254 167 l 254 0 l 299 0 l 293 -167 l 335 -167 l 407 -14 z m 178 167 l 25 167 l 25 0 l 69 0 l 64 -167 l 106 -167 l 178 -14 z "},"'":{"ha":239,"x_min":0,"x_max":0,"o":"m 75 671 l 164 671 l 183 972 l 56 972 z "},"\"":{"ha":436,"x_min":0,"x_max":0,"o":"m 75 671 l 164 671 l 183 972 l 56 972 z m 272 671 l 361 671 l 381 972 l 253 972 z "},"‹":{"ha":375,"x_min":0,"x_max":0,"o":"m 201 493 l 319 775 l 172 775 l 56 493 l 172 211 l 319 211 z "},"›":{"ha":375,"x_min":0,"x_max":0,"o":"m 56 211 l 203 211 l 319 493 l 203 775 l 56 775 l 174 493 z "},"«":{"ha":636,"x_min":0,"x_max":0,"o":"m 201 493 l 319 775 l 172 775 l 56 493 l 172 211 l 319 211 z m 463 493 l 581 775 l 433 775 l 317 493 l 433 211 l 581 211 z "},"»":{"ha":636,"x_min":0,"x_max":0,"o":"m 56 211 l 203 211 l 319 493 l 203 775 l 56 775 l 174 493 z m 317 211 l 464 211 l 581 493 l 464 775 l 317 775 l 435 493 z "},"/":{"ha":396,"x_min":0,"x_max":0,"o":"m 375 972 l 229 972 l 21 0 l 167 0 z "},"\\":{"ha":396,"x_min":0,"x_max":0,"o":"m 229 0 l 375 0 l 167 972 l 21 972 z "},"|":{"ha":264,"x_min":0,"x_max":0,"o":"m 208 1042 l 56 1042 l 56 -69 l 208 -69 z "},"¦":{"ha":264,"x_min":0,"x_max":0,"o":"m 208 1042 l 56 1042 l 56 597 l 208 597 z m 208 389 l 56 389 l 56 -69 l 208 -69 z "},"–":{"ha":400,"x_min":0,"x_max":0,"o":"m 344 569 l 56 569 l 56 417 l 344 417 z "},"_":{"ha":511,"x_min":0,"x_max":0,"o":"m 511 -56 l 0 -56 l 0 -208 l 511 -208 z "},"—":{"ha":890,"x_min":0,"x_max":0,"o":"m 835 569 l 56 569 l 56 417 l 835 417 z "},"•":{"ha":361,"x_min":0,"x_max":0,"o":"m 56 493 b 181 368 56 424 111 368 b 306 493 250 368 306 424 b 181 618 306 563 250 618 b 56 493 111 618 56 563 z "},"·":{"ha":264,"x_min":0,"x_max":0,"o":"m 208 576 l 56 576 l 56 410 l 208 410 z "},"(":{"ha":322,"x_min":0,"x_max":0,"o":"m 208 771 b 294 854 208 810 246 854 l 294 1007 b 56 785 139 1006 56 903 l 56 201 b 294 -21 56 83 140 -21 l 294 132 b 208 215 246 132 208 176 z "},")":{"ha":322,"x_min":0,"x_max":0,"o":"m 114 215 b 28 132 114 176 76 132 l 28 -21 b 267 201 182 -21 267 83 l 267 785 b 28 1007 267 903 183 1006 l 28 854 b 114 771 76 854 114 810 z "},"[":{"ha":336,"x_min":0,"x_max":0,"o":"m 208 854 l 308 854 l 308 1007 l 56 1007 l 56 -21 l 308 -21 l 308 132 l 208 132 z "},"]":{"ha":336,"x_min":0,"x_max":0,"o":"m 128 132 l 28 132 l 28 -21 l 281 -21 l 281 1007 l 28 1007 l 28 854 l 128 854 z "},"{":{"ha":399,"x_min":0,"x_max":0,"o":"m 21 417 l 122 417 l 122 154 b 279 -21 122 57 182 -21 l 371 -21 l 371 132 l 272 132 l 272 840 l 371 840 l 371 993 l 279 993 b 122 818 182 993 122 915 l 122 569 l 21 569 z "},"}":{"ha":399,"x_min":0,"x_max":0,"o":"m 126 132 l 28 132 l 28 -21 l 119 -21 b 276 154 217 -21 276 57 l 276 417 l 378 417 l 378 569 l 276 569 l 276 818 b 119 993 276 915 217 993 l 28 993 l 28 840 l 126 840 z "},"*":{"ha":492,"x_min":0,"x_max":0,"o":"m 307 610 l 399 676 l 317 767 l 436 793 l 401 901 l 290 853 l 303 972 l 189 972 l 200 853 l 90 901 l 56 793 l 174 767 l 93 676 l 185 610 l 246 714 z "},"†":{"ha":514,"x_min":0,"x_max":0,"o":"m 21 613 l 181 613 l 181 0 l 333 0 l 333 613 l 493 613 l 493 765 l 333 765 l 333 972 l 181 972 l 181 765 l 21 765 z "},"‡":{"ha":514,"x_min":0,"x_max":0,"o":"m 21 201 l 181 201 l 181 0 l 333 0 l 333 201 l 493 201 l 493 354 l 333 354 l 333 613 l 493 613 l 493 765 l 333 765 l 333 972 l 181 972 l 181 765 l 21 765 l 21 613 l 181 613 l 181 354 l 21 354 z "},"§":{"ha":556,"x_min":0,"x_max":0,"o":"m 500 556 l 244 725 b 208 785 218 743 208 758 b 257 833 208 815 228 833 l 299 833 b 347 785 328 833 347 815 l 347 703 l 500 703 l 500 785 b 299 986 500 903 417 986 l 257 986 b 56 785 139 986 56 903 b 171 594 56 707 85 650 l 500 382 z m 56 417 l 311 247 b 347 188 338 229 347 214 b 299 139 347 157 328 139 l 257 139 b 208 188 228 139 208 157 l 208 269 l 56 269 l 56 188 b 257 -14 56 69 139 -14 l 299 -14 b 500 188 417 -14 500 69 b 385 378 500 265 471 322 l 56 590 z "},"¶":{"ha":701,"x_min":0,"x_max":0,"o":"m 257 0 l 396 0 l 396 972 l 257 972 b 56 771 139 972 56 896 l 56 549 b 257 347 56 431 139 347 z m 646 972 l 507 972 l 507 0 l 646 0 z "},"@":{"ha":729,"x_min":0,"x_max":0,"o":"m 674 458 l 674 785 b 472 986 674 903 590 986 l 257 986 b 56 785 139 986 56 903 l 56 188 b 257 -14 56 69 139 -14 l 472 -14 b 674 188 590 -14 674 69 l 674 214 l 535 214 l 535 188 b 472 125 535 150 508 125 l 257 125 b 194 188 221 125 194 150 l 194 771 b 257 847 194 808 221 847 l 472 847 b 535 785 508 847 535 822 l 535 758 b 472 771 514 767 492 771 b 271 569 354 771 271 688 l 271 458 b 472 257 271 340 354 257 b 674 458 590 257 674 340 z m 410 458 l 410 569 b 472 632 410 607 436 632 b 535 569 508 632 535 607 l 535 458 b 472 396 535 421 508 396 b 410 458 436 396 410 421 z "},"©":{"ha":879,"x_min":0,"x_max":0,"o":"m 656 -14 b 824 154 754 -14 824 56 l 824 818 b 656 986 824 917 754 986 l 224 986 b 56 818 125 986 56 917 l 56 154 b 224 -14 56 56 125 -14 z m 228 117 b 186 158 206 117 186 135 l 186 814 b 228 854 186 838 206 854 l 651 854 b 692 814 674 854 692 838 l 692 158 b 651 117 692 135 674 117 z m 497 439 l 497 350 b 458 310 497 326 481 310 l 419 310 b 379 350 397 310 379 326 l 379 621 b 419 660 379 644 397 660 l 458 660 b 497 621 481 660 497 644 l 497 542 l 629 542 l 629 624 b 461 792 629 722 560 792 l 417 792 b 249 624 318 792 249 722 l 249 347 b 417 179 249 249 318 179 l 461 179 b 629 347 560 179 629 249 l 629 439 z "},"®":{"ha":754,"x_min":0,"x_max":0,"o":"m 572 144 b 699 269 643 144 699 200 l 699 860 b 572 986 699 931 643 986 l 181 986 b 56 860 111 986 56 931 l 56 269 b 181 144 56 200 111 144 z m 194 253 b 164 283 178 253 164 265 l 164 846 b 194 878 164 864 178 878 l 558 878 b 590 846 576 878 590 864 l 590 283 b 558 253 590 265 576 253 z m 472 481 b 519 578 501 497 519 539 l 519 682 b 393 808 519 756 464 808 l 233 808 l 233 322 l 335 322 l 335 467 l 381 467 l 407 322 l 522 322 z m 335 707 l 386 707 b 418 675 404 707 418 693 l 418 599 b 386 568 418 581 404 568 l 335 568 z "},"℗":{"ha":879,"x_min":0,"x_max":0,"o":"m 656 -14 b 824 154 754 -14 824 56 l 824 818 b 656 986 824 917 754 986 l 224 986 b 56 818 125 986 56 917 l 56 154 b 224 -14 56 56 125 -14 z m 228 117 b 186 158 206 117 186 135 l 186 814 b 228 854 186 838 206 854 l 651 854 b 692 814 674 854 692 838 l 692 158 b 651 117 692 135 674 117 z m 379 349 l 461 349 b 629 517 560 349 629 418 l 629 624 b 461 792 629 728 560 792 l 249 792 l 249 179 l 379 179 z m 379 660 l 457 660 b 497 619 479 660 497 643 l 497 521 b 457 481 497 499 479 481 l 379 481 z "},"™":{"ha":810,"x_min":0,"x_max":0,"o":"m 21 972 l 21 871 l 113 871 l 113 486 l 214 486 l 214 871 l 307 871 l 307 972 z m 754 972 l 635 972 l 561 721 l 488 972 l 369 972 l 369 486 l 471 486 l 471 753 l 543 500 l 579 500 l 653 753 l 653 486 l 754 486 z "},"ª":{"ha":321,"x_min":0,"x_max":0,"o":"m 14 486 l 115 486 l 124 557 l 196 557 l 206 486 l 307 486 l 232 972 l 88 972 z m 160 871 l 183 658 l 138 658 z "},"º":{"ha":369,"x_min":0,"x_max":0,"o":"m 201 479 b 328 604 272 479 328 535 l 328 853 b 201 979 328 924 272 979 l 167 979 b 42 853 97 979 42 924 l 42 604 b 167 479 42 535 97 479 z m 174 581 b 143 611 157 581 143 593 l 143 846 b 174 878 143 864 157 878 l 194 878 b 226 846 213 878 226 864 l 226 611 b 194 581 226 593 213 581 z "},"№":{"ha":925,"x_min":0,"x_max":0,"o":"m 743 479 b 869 604 814 479 869 535 l 869 853 b 743 979 869 924 814 979 l 708 979 b 583 853 639 979 583 924 l 583 604 b 708 479 583 535 639 479 z m 486 0 l 486 972 l 333 972 l 333 518 l 146 972 l 56 972 l 56 0 l 208 0 l 208 461 l 396 0 z m 715 581 b 685 611 699 581 685 593 l 685 846 b 715 878 685 864 699 878 l 736 878 b 768 846 754 878 768 864 l 768 611 b 736 581 768 593 754 581 z m 583 288 l 869 288 l 869 389 l 583 389 z "},"&":{"ha":604,"x_min":0,"x_max":0,"o":"m 347 664 l 347 583 l 257 583 b 208 632 228 583 208 601 l 208 785 b 257 833 208 815 228 833 l 299 833 b 347 785 328 833 347 815 l 347 738 l 500 738 l 500 785 b 299 986 500 910 417 986 l 257 986 b 56 785 139 986 56 910 l 56 660 b 139 507 56 576 85 521 b 56 354 85 493 56 438 l 56 201 b 257 0 56 83 139 0 l 500 0 l 500 431 l 576 431 l 576 583 l 500 583 l 500 664 z m 208 382 b 257 431 208 413 228 431 l 347 431 l 347 153 l 257 153 b 208 201 228 153 208 171 z "},"#":{"ha":793,"x_min":0,"x_max":0,"o":"m 554 222 l 710 222 l 710 375 l 588 375 l 638 611 l 772 611 l 772 764 l 671 764 l 715 972 l 569 972 l 525 764 l 383 764 l 428 972 l 282 972 l 238 764 l 83 764 l 83 611 l 204 611 l 154 375 l 21 375 l 21 222 l 121 222 l 74 0 l 219 0 l 267 222 l 408 222 l 361 0 l 507 0 z m 350 611 l 492 611 l 442 375 l 300 375 z "},"€":{"ha":611,"x_min":0,"x_max":0,"o":"m 403 278 l 403 188 b 354 139 403 157 383 139 l 313 139 b 264 188 283 139 264 157 l 264 331 l 458 331 l 458 464 l 264 464 l 264 522 l 458 522 l 458 656 l 264 656 l 264 785 b 313 833 264 815 283 833 l 354 833 b 403 785 383 833 403 815 l 403 708 l 556 708 l 556 785 b 354 986 556 903 472 986 l 313 986 b 111 785 194 986 111 903 l 111 656 l 28 656 l 28 522 l 111 522 l 111 464 l 28 464 l 28 331 l 111 331 l 111 188 b 313 -14 111 69 194 -14 l 354 -14 b 556 188 472 -14 556 69 l 556 278 z "},"$":{"ha":556,"x_min":0,"x_max":0,"o":"m 347 -8 b 500 188 439 10 500 86 l 500 264 b 388 486 500 360 460 408 l 261 624 b 208 722 225 664 208 683 l 208 785 b 257 833 208 815 228 833 l 292 833 b 340 785 321 833 340 815 l 340 653 l 493 653 l 493 785 b 347 979 493 883 435 957 l 347 1097 l 208 1097 l 208 981 b 56 785 117 961 56 886 l 56 722 b 168 500 56 626 96 578 l 296 361 b 347 264 332 321 347 303 l 347 188 b 299 139 347 157 328 139 l 257 139 b 208 188 228 139 208 157 l 208 333 l 56 333 l 56 188 b 208 -8 56 86 117 10 l 208 -125 l 347 -125 z "},"¢":{"ha":556,"x_min":0,"x_max":0,"o":"m 347 389 l 347 188 b 299 139 347 157 328 139 l 257 139 b 208 188 228 139 208 157 l 208 785 b 257 833 208 815 228 833 l 299 833 b 347 785 328 833 347 815 l 347 597 l 500 597 l 500 785 b 347 981 500 886 439 961 l 347 1097 l 208 1097 l 208 981 b 56 785 117 961 56 886 l 56 188 b 208 -8 56 86 117 10 l 208 -125 l 347 -125 l 347 -8 b 500 188 439 10 500 86 l 500 389 z "},"£":{"ha":606,"x_min":0,"x_max":0,"o":"m 439 569 l 275 569 l 258 785 b 307 833 256 815 278 833 l 349 833 b 397 785 378 833 397 815 l 397 667 l 550 667 l 550 785 b 349 986 550 903 467 986 l 307 986 b 106 785 189 986 96 903 l 122 569 l 21 569 l 21 417 l 135 417 l 157 139 l 21 139 l 21 0 l 550 0 l 550 306 l 397 306 l 397 139 l 310 139 l 288 417 l 439 417 z "},"ƒ":{"ha":403,"x_min":0,"x_max":0,"o":"m 382 694 l 278 694 l 278 769 b 326 818 278 800 297 818 l 382 818 l 382 971 l 326 971 b 125 769 208 971 125 888 l 125 694 l 21 694 l 21 542 l 125 542 l 125 201 b 76 153 125 171 106 153 l 21 153 l 21 0 l 76 0 b 278 201 194 0 278 83 l 278 542 l 382 542 z "},"¥":{"ha":500,"x_min":0,"x_max":0,"o":"m 444 460 l 357 460 l 479 972 l 326 972 l 250 551 l 174 972 l 21 972 l 143 460 l 56 460 l 56 333 l 174 333 l 174 242 l 56 242 l 56 115 l 174 115 l 174 0 l 326 0 l 326 115 l 444 115 l 444 242 l 326 242 l 326 333 l 444 333 z "},"¹":{"ha":229,"x_min":0,"x_max":0,"o":"m 21 832 l 72 832 l 72 556 l 174 556 l 174 972 l 100 972 b 21 908 100 972 94 921 z "},"²":{"ha":363,"x_min":0,"x_max":0,"o":"m 56 556 l 307 556 l 307 657 l 185 657 l 276 758 b 307 850 303 789 307 801 l 307 885 b 213 979 307 938 264 979 l 150 979 b 56 885 97 979 56 938 l 56 822 l 156 822 l 156 871 b 164 878 156 876 160 878 l 199 878 b 206 871 203 878 206 876 l 206 843 b 179 793 206 824 197 814 l 99 706 b 56 586 63 667 56 633 z "},"³":{"ha":363,"x_min":0,"x_max":0,"o":"m 199 722 b 206 715 203 722 206 721 l 206 664 b 199 657 206 658 203 657 l 164 657 b 156 664 160 657 156 658 l 156 694 l 56 694 l 56 650 b 150 556 56 597 97 556 l 213 556 b 307 650 264 556 307 597 l 307 701 b 256 772 307 743 293 760 b 307 850 293 785 307 808 l 307 885 b 213 979 307 938 264 979 l 150 979 b 56 885 97 979 56 938 l 56 847 l 156 847 l 156 871 b 164 878 156 876 160 878 l 199 878 b 206 871 203 878 206 876 l 206 826 b 199 819 206 821 203 819 l 142 819 l 142 722 z "},"⁴":{"ha":367,"x_min":0,"x_max":0,"o":"m 165 556 l 267 556 l 267 646 l 311 646 l 311 731 l 267 731 l 267 979 l 153 979 l 42 731 l 42 646 l 165 646 z m 114 731 l 165 853 l 165 731 z "},"₁":{"ha":229,"x_min":0,"x_max":0,"o":"m 21 276 l 72 276 l 72 0 l 174 0 l 174 417 l 100 417 b 21 353 100 417 94 365 z "},"₂":{"ha":363,"x_min":0,"x_max":0,"o":"m 56 0 l 307 0 l 307 101 l 185 101 l 276 203 b 307 294 303 233 307 246 l 307 329 b 213 424 307 382 264 424 l 150 424 b 56 329 97 424 56 382 l 56 267 l 156 267 l 156 315 b 164 322 156 321 160 322 l 199 322 b 206 315 203 322 206 321 l 206 288 b 179 238 206 268 197 258 l 99 150 b 56 31 63 111 56 78 z "},"₃":{"ha":363,"x_min":0,"x_max":0,"o":"m 199 167 b 206 160 203 167 206 165 l 206 108 b 199 101 206 103 203 101 l 164 101 b 156 108 160 101 156 103 l 156 139 l 56 139 l 56 94 b 150 0 56 42 97 0 l 213 0 b 307 94 264 0 307 42 l 307 146 b 256 217 307 188 293 204 b 307 294 293 229 307 253 l 307 329 b 213 424 307 382 264 424 l 150 424 b 56 329 97 424 56 382 l 56 292 l 156 292 l 156 315 b 164 322 156 321 160 322 l 199 322 b 206 315 203 322 206 321 l 206 271 b 199 264 206 265 203 264 l 142 264 l 142 167 z "},"₄":{"ha":367,"x_min":0,"x_max":0,"o":"m 165 0 l 267 0 l 267 90 l 311 90 l 311 175 l 267 175 l 267 424 l 153 424 l 42 175 l 42 90 l 165 90 z m 114 175 l 165 297 l 165 175 z "},"⁄":{"ha":386,"x_min":0,"x_max":0,"o":"m 331 550 l 299 593 l 56 415 l 86 372 z "},"½":{"ha":561,"x_min":0,"x_max":0,"o":"m 21 832 l 72 832 l 72 556 l 174 556 l 174 972 l 100 972 b 21 908 100 972 94 921 z m 369 550 l 338 593 l 94 415 l 125 372 z m 254 0 l 506 0 l 506 101 l 383 101 l 475 203 b 506 294 501 233 506 246 l 506 329 b 411 424 506 382 463 424 l 349 424 b 254 329 296 424 254 382 l 254 267 l 354 267 l 354 315 b 363 322 354 321 358 322 l 397 322 b 404 315 401 322 404 321 l 404 288 b 378 238 404 268 396 258 l 297 150 b 254 31 261 111 254 78 z "},"¼":{"ha":524,"x_min":0,"x_max":0,"o":"m 21 832 l 72 832 l 72 556 l 174 556 l 174 972 l 100 972 b 21 908 100 972 94 921 z m 369 550 l 338 593 l 94 415 l 125 372 z m 322 0 l 424 0 l 424 90 l 468 90 l 468 175 l 424 175 l 424 424 l 310 424 l 199 175 l 199 90 l 322 90 z m 271 175 l 322 297 l 322 175 z "},"¾":{"ha":579,"x_min":0,"x_max":0,"o":"m 199 722 b 206 715 203 722 206 721 l 206 664 b 199 657 206 658 203 657 l 164 657 b 156 664 160 657 156 658 l 156 694 l 56 694 l 56 650 b 150 556 56 597 97 556 l 213 556 b 307 650 264 556 307 597 l 307 701 b 256 772 307 743 293 760 b 307 850 293 785 307 808 l 307 885 b 213 979 307 938 264 979 l 150 979 b 56 885 97 979 56 938 l 56 847 l 156 847 l 156 871 b 164 878 156 876 160 878 l 199 878 b 206 871 203 878 206 876 l 206 826 b 199 819 206 821 203 819 l 142 819 l 142 722 z m 432 550 l 400 593 l 157 415 l 188 372 z m 378 0 l 479 0 l 479 90 l 524 90 l 524 175 l 479 175 l 479 424 l 365 424 l 254 175 l 254 90 l 378 90 z m 326 175 l 378 297 l 378 175 z "},"%":{"ha":618,"x_min":0,"x_max":0,"o":"m 224 549 b 292 617 265 549 292 575 l 292 904 b 224 972 292 943 263 972 l 124 972 b 56 904 85 972 56 943 l 56 617 b 124 549 56 575 82 549 z m 189 875 b 194 869 192 875 194 874 l 194 651 b 189 646 194 647 192 646 l 158 646 b 153 651 156 646 153 647 l 153 869 b 158 875 153 874 156 875 z m 446 550 l 414 593 l 171 415 l 201 372 z m 494 0 b 563 68 536 0 563 26 l 563 356 b 494 424 563 394 533 424 l 394 424 b 326 356 356 424 326 394 l 326 68 b 394 0 326 26 353 0 z m 460 326 b 465 321 463 326 465 325 l 465 103 b 460 97 465 99 463 97 l 429 97 b 424 103 426 97 424 99 l 424 321 b 429 326 424 325 426 326 z "},"‰":{"ha":919,"x_min":0,"x_max":0,"o":"m 224 549 b 292 617 265 549 292 575 l 292 904 b 224 972 292 943 263 972 l 124 972 b 56 904 85 972 56 943 l 56 617 b 124 549 56 575 82 549 z m 189 875 b 194 869 192 875 194 874 l 194 651 b 189 646 194 647 192 646 l 158 646 b 153 651 156 646 153 647 l 153 869 b 158 875 153 874 156 875 z m 446 550 l 414 593 l 171 415 l 201 372 z m 796 0 b 864 68 838 0 864 26 l 864 356 b 796 424 864 394 835 424 l 696 424 b 628 356 657 424 628 394 l 628 68 b 696 0 628 26 654 0 z m 494 0 b 563 68 536 0 563 26 l 563 356 b 494 424 563 394 533 424 l 394 424 b 326 356 356 424 326 394 l 326 68 b 394 0 326 26 353 0 z m 460 326 b 465 321 463 326 465 325 l 465 103 b 460 97 465 99 463 97 l 429 97 b 424 103 426 97 424 99 l 424 321 b 429 326 424 325 426 326 z m 761 326 b 767 321 764 326 767 325 l 767 103 b 761 97 767 99 764 97 l 731 97 b 725 103 728 97 725 99 l 725 321 b 731 326 725 325 728 326 z "},"+":{"ha":472,"x_min":0,"x_max":0,"o":"m 167 715 l 167 563 l 56 563 l 56 424 l 167 424 l 167 271 l 306 271 l 306 424 l 417 424 l 417 563 l 306 563 l 306 715 z "},"−":{"ha":472,"x_min":0,"x_max":0,"o":"m 417 563 l 56 563 l 56 424 l 417 424 z "},"±":{"ha":472,"x_min":0,"x_max":0,"o":"m 167 715 l 167 563 l 56 563 l 56 424 l 167 424 l 167 271 l 306 271 l 306 424 l 417 424 l 417 563 l 306 563 l 306 715 z m 417 139 l 56 139 l 56 0 l 417 0 z "},"×":{"ha":483,"x_min":0,"x_max":0,"o":"m 56 582 l 144 493 l 56 404 l 153 307 l 242 396 l 331 307 l 428 404 l 339 493 l 428 582 l 331 679 l 242 590 l 153 679 z "},"÷":{"ha":472,"x_min":0,"x_max":0,"o":"m 313 819 l 160 819 l 160 653 l 313 653 z m 417 563 l 56 563 l 56 424 l 417 424 z m 313 333 l 160 333 l 160 167 l 313 167 z "},"=":{"ha":472,"x_min":0,"x_max":0,"o":"m 417 693 l 56 693 l 56 554 l 417 554 z m 417 432 l 56 432 l 56 293 l 417 293 z "},"≠":{"ha":472,"x_min":0,"x_max":0,"o":"m 417 693 l 357 693 l 388 818 l 242 818 l 211 693 l 56 693 l 56 554 l 417 554 z m 417 432 l 56 432 l 56 293 l 118 293 l 89 168 l 235 168 l 264 293 l 417 293 z "},"~":{"ha":472,"x_min":0,"x_max":0,"o":"m 56 418 b 151 436 56 418 108 436 b 324 414 211 436 274 414 b 417 433 386 414 417 433 l 417 568 b 324 550 417 568 367 550 b 153 572 264 550 203 572 b 56 553 92 572 56 553 z "},"≈":{"ha":472,"x_min":0,"x_max":0,"o":"m 56 540 b 151 558 56 540 108 558 b 324 536 211 558 274 536 b 417 556 386 536 417 556 l 417 690 b 324 672 417 690 367 672 b 153 694 264 672 203 694 b 56 675 92 694 56 675 z m 56 296 b 151 314 56 296 108 314 b 324 292 211 314 274 292 b 417 311 386 292 417 311 l 417 446 b 324 428 417 446 367 428 b 153 450 264 428 203 450 b 56 431 92 450 56 431 z "},"^":{"ha":492,"x_min":0,"x_max":0,"o":"m 193 653 l 244 871 l 299 653 l 436 653 l 328 972 l 161 972 l 56 653 z "},"<":{"ha":472,"x_min":0,"x_max":0,"o":"m 417 371 l 194 493 l 417 615 l 417 782 l 56 576 l 56 410 l 417 204 z "},">":{"ha":472,"x_min":0,"x_max":0,"o":"m 56 615 l 278 493 l 56 371 l 56 204 l 417 410 l 417 576 l 56 782 z "},"≤":{"ha":472,"x_min":0,"x_max":0,"o":"m 417 371 l 194 493 l 417 615 l 417 782 l 56 576 l 56 410 l 417 204 z m 417 139 l 56 139 l 56 0 l 417 0 z "},"≥":{"ha":472,"x_min":0,"x_max":0,"o":"m 56 615 l 278 493 l 56 371 l 56 204 l 417 410 l 417 576 l 56 782 z m 417 139 l 56 139 l 56 0 l 417 0 z "},"¬":{"ha":517,"x_min":0,"x_max":0,"o":"m 56 563 l 56 424 l 322 424 l 322 286 l 461 286 l 461 563 z "},"¤":{"ha":567,"x_min":0,"x_max":0,"o":"m 497 474 l 425 546 b 426 563 426 551 426 557 l 426 617 b 425 635 426 624 426 629 l 497 707 l 400 804 l 335 739 b 300 743 324 742 313 743 l 265 743 b 232 739 254 743 243 742 l 167 804 l 69 707 l 142 635 b 140 617 140 629 140 624 l 140 563 b 142 546 140 557 140 551 l 69 474 l 167 376 l 232 442 b 265 438 243 439 254 438 l 300 438 b 335 442 313 438 324 439 l 400 376 z m 272 539 b 242 569 256 539 242 551 l 242 610 b 272 642 242 628 256 642 l 293 642 b 325 610 311 642 325 628 l 325 569 b 293 539 325 551 311 539 z "},"∞":{"ha":832,"x_min":0,"x_max":0,"o":"m 56 439 b 238 249 56 318 129 249 b 399 333 311 249 358 281 l 415 356 l 433 333 b 594 249 476 281 519 249 b 776 439 703 249 776 318 l 776 547 b 594 738 776 668 703 738 b 433 653 519 738 475 704 l 415 631 l 399 653 b 238 738 358 706 311 738 b 56 547 129 738 56 668 z m 194 554 b 238 599 194 581 211 599 b 300 557 264 599 281 582 l 347 493 l 300 429 b 238 388 281 404 264 388 b 194 432 211 388 194 406 z m 532 557 b 594 599 551 582 568 599 b 638 554 621 599 638 581 l 638 432 b 594 388 638 406 621 388 b 532 429 568 388 551 404 l 483 493 z "},"◊":{"ha":525,"x_min":0,"x_max":0,"o":"m 504 486 l 354 972 l 171 972 l 21 486 l 171 0 l 354 0 z m 165 486 l 263 813 l 360 486 l 263 160 z "},"∆":{"ha":514,"x_min":0,"x_max":0,"o":"m 21 0 l 493 0 l 360 972 l 154 972 z m 257 736 l 322 153 l 190 153 z "},"Δ":{"ha":514,"x_min":0,"x_max":0,"o":"m 21 0 l 493 0 l 360 972 l 154 972 z m 257 736 l 322 153 l 190 153 z "},"Ω":{"ha":564,"x_min":0,"x_max":0,"o":"m 543 0 l 543 153 l 460 153 l 504 785 b 303 986 513 903 421 986 l 261 986 b 60 785 143 986 51 903 l 104 153 l 21 153 l 21 0 l 257 0 l 257 118 l 213 785 b 261 833 211 815 232 833 l 303 833 b 351 785 332 833 353 815 l 307 118 l 307 0 z "},"Ω":{"ha":564,"x_min":0,"x_max":0,"o":"m 543 0 l 543 153 l 460 153 l 504 785 b 303 986 513 903 421 986 l 261 986 b 60 785 143 986 51 903 l 104 153 l 21 153 l 21 0 l 257 0 l 257 118 l 213 785 b 261 833 211 815 232 833 l 303 833 b 351 785 332 833 353 815 l 307 118 l 307 0 z "},"∂":{"ha":556,"x_min":0,"x_max":0,"o":"m 279 647 b 243 650 269 649 258 650 b 56 449 139 650 56 567 l 56 188 b 257 -14 56 69 139 -14 l 299 -14 b 500 188 417 -14 500 69 l 500 472 b 456 625 500 526 478 578 l 288 972 l 121 972 z m 257 139 b 208 188 228 139 208 157 l 208 449 b 257 497 208 479 228 497 l 299 497 b 347 449 328 497 347 479 l 347 188 b 299 139 347 157 328 139 z "},"∫":{"ha":403,"x_min":0,"x_max":0,"o":"m 125 90 b 76 42 125 60 106 42 l 21 42 l 21 -111 l 76 -111 b 278 90 194 -111 278 -28 l 278 783 b 326 832 278 814 297 832 l 382 832 l 382 985 l 326 985 b 125 783 208 985 125 901 z "},"√":{"ha":532,"x_min":0,"x_max":0,"o":"m 21 542 l 110 542 l 178 0 l 400 0 l 511 972 l 358 972 l 289 229 l 236 694 l 21 694 z "},"∑":{"ha":479,"x_min":0,"x_max":0,"o":"m 231 819 l 424 819 l 424 972 l 56 972 l 56 840 l 222 492 l 56 132 l 56 0 l 424 0 l 424 153 l 231 153 l 378 461 l 378 522 z "},"∏":{"ha":590,"x_min":0,"x_max":0,"o":"m 535 972 l 56 972 l 56 -97 l 208 -97 l 208 819 l 382 819 l 382 -97 l 535 -97 z "},"π":{"ha":689,"x_min":0,"x_max":0,"o":"m 56 542 l 153 542 l 89 0 l 250 0 l 307 542 l 401 542 l 401 0 l 554 0 l 554 542 l 633 542 l 633 694 l 56 694 z "},"µ":{"ha":536,"x_min":0,"x_max":0,"o":"m 328 729 l 328 201 b 279 153 328 171 308 153 l 208 153 l 208 729 l 56 729 l 56 -125 l 208 -125 l 208 0 l 279 0 b 481 201 397 0 481 83 l 481 729 z "},"μ":{"ha":536,"x_min":0,"x_max":0,"o":"m 328 729 l 328 201 b 279 153 328 171 308 153 l 208 153 l 208 729 l 56 729 l 56 -125 l 208 -125 l 208 0 l 279 0 b 481 201 397 0 481 83 l 481 729 z "},"°":{"ha":397,"x_min":0,"x_max":0,"o":"m 215 479 b 342 604 286 479 342 535 l 342 853 b 215 979 342 924 286 979 l 181 979 b 56 853 111 979 56 924 l 56 604 b 181 479 56 535 111 479 z m 188 581 b 157 611 171 581 157 593 l 157 846 b 188 878 157 864 171 878 l 208 878 b 240 846 226 878 240 864 l 240 611 b 208 581 240 593 226 581 z m 56 288 l 342 288 l 342 389 l 56 389 z "},"❤":{"ha":897,"x_min":0,"x_max":0,"o":"m 640 869 b 458 725 519 869 475 789 l 438 725 b 257 869 421 789 376 869 b 42 653 161 869 42 821 b 447 103 42 438 353 390 l 449 103 b 856 653 544 390 856 438 b 640 869 856 821 735 869 z "},"●":{"ha":875,"x_min":0,"x_max":0,"o":"m 819 486 b 438 868 819 696 647 868 b 56 486 226 868 56 696 b 438 104 56 275 226 104 b 819 486 647 104 819 275 z "},"■":{"ha":904,"x_min":0,"x_max":0,"o":"m 111 190 l 793 190 l 793 872 l 111 872 z "},"▲":{"ha":1056,"x_min":0,"x_max":0,"o":"m 56 111 l 1000 111 l 528 861 z "},"▼":{"ha":1056,"x_min":0,"x_max":0,"o":"m 528 111 l 1000 861 l 56 861 z "},"►":{"ha":917,"x_min":0,"x_max":0,"o":"m 861 486 l 111 958 l 111 14 z "},"◀":{"ha":917,"x_min":0,"x_max":0,"o":"m 806 14 l 806 958 l 56 486 z "},"◆":{"ha":997,"x_min":0,"x_max":0,"o":"m 56 535 l 499 92 l 942 535 l 499 978 z "},"ß":{"ha":556,"x_min":0,"x_max":0,"o":"m 257 0 l 299 0 b 500 201 417 0 500 83 l 500 340 b 417 493 500 424 471 479 b 500 646 471 507 500 563 l 500 785 b 299 986 500 910 417 986 l 257 986 b 56 785 139 986 56 910 l 56 0 l 208 0 l 208 785 b 257 833 208 815 228 833 l 299 833 b 347 785 328 833 347 815 l 347 618 b 299 569 347 588 328 569 l 257 569 l 257 417 l 299 417 b 347 368 328 417 347 399 l 347 201 b 299 153 347 171 328 153 l 257 153 z "}}}
